<?xml version="1.0" standalone="no"?><!DOCTYPE svg PUBLIC "-//W3C//DTD SVG 1.1//EN" 	"http://www.w3.org/Graphics/SVG/1.1/DTD/svg11.dtd"><svg width="1847" height="886" version="1.1"	xmlns="http://www.w3.org/2000/svg"><title>Krona (snapshot) - root</title><defs>	<style type="text/css">	text {font-size: 11px; font-family: sans-serif; dominant-baseline:central}	path {stroke-width:0.27499999999999997;}	path.wedge {stroke:none}	path.line {fill:none;stroke:black;}	line {stroke:black;stroke-width:0.27499999999999997;}	line.tick {stroke-width:0.5499999999999999;}	line.pattern {stroke-width:0.18333333333333332;}	circle {fill:none;stroke:black;stroke-width:0.27499999999999997;}	rect {stroke:black;stroke-width:0.27499999999999997;}	.highlight {stroke:black;stroke-width:1.375;}	.searchHighlight {fill:rgb(255, 255, 100);stroke:none;}	</style><pattern id="hiddenPattern" patternUnits="userSpaceOnUse" x="0" y="0" width="6.6" height="6.6"><line class="pattern" x1="0" y1="0" x2="3.3" y2="3.3"/><line class="pattern" x1="3.3" y1="6.6" x2="6.6" y2="3.3"/></pattern></defs><path class="wedge" fill="rgb(220,220,220)" d=" M 849.3020731538546,530.9963446891737 L 851.7301673377964,797.3852790663994 A 354.4,354.4 0 0,1 848.5000000000001,797.4 L 848.5,531 A 88,88 0 0 0 849.3020731538546,530.9963446891737 Z "/><path class="wedge" fill="rgb(207,111,111)" d=" M 848.5,531 L 848.5,797.4 A 354.4,354.4 0 1,1 853.1851386562064,797.3690300742604 L 849.6633527137307,530.9923099507193 A 88,88 0 1 0 848.5,531 Z "/><path class="wedge" fill="rgb(207,111,111)" d=" M 850.5299249381058,596.3540634219324 L 853.1907291874877,797.3689561173348 A 354.4,354.4 0 0,1 853.1851386562064,797.3690300742604 L 850.5275056215323,596.3540954269793 A 153.3674977407939,153.3674977407939 0 0 0 850.5299249381058,596.3540634219324 Z "/><path class="wedge" fill="rgb(210,121,121)" d=" M 848.5,596.3674977407939 L 848.5,797.4 A 354.4,354.4 0 1,1 853.2703941307283,797.3678926480748 L 850.5644001440947,596.3536032029162 A 153.3674977407939,153.3674977407939 0 1 0 848.5,596.3674977407939 Z "/><path class="wedge" fill="rgb(210,121,121)" d=" M 851.7229445555281,636.8553852849383 L 854.3912664384325,797.3510307304769 A 354.4,354.4 0 0,1 853.2703941307283,797.3678926480748 L 851.1097471489416,636.8646099611749 A 193.882174981559,193.882174981559 0 0 0 851.7229445555281,636.8553852849383 Z "/><path class="wedge" fill="rgb(213,130,130)" d=" M 848.5,636.882174981559 L 848.5,797.4 A 354.4,354.4 0 1,1 856.875966418819,797.3010064712641 L 853.0822533489084,636.8280184334202 A 193.882174981559,193.882174981559 0 1 0 848.5,636.882174981559 Z "/><path class="wedge" fill="rgb(213,130,130)" d=" M 853.9572005118943,664.2715278180937 L 857.2378794382159,797.2922655985072 A 354.4,354.4 0 0,1 856.875966418819,797.3010064712641 L 853.7311694790013,664.2769868880683 A 221.3388128195785,221.3388128195785 0 0 0 853.9572005118943,664.2715278180937 Z "/><path class="wedge" fill="rgb(216,140,140)" d=" M 848.5,664.3388128195785 L 848.5,797.4 A 354.4,354.4 0 1,1 1196.1850915758564,374.33824138657366 L 1065.6450491096684,400.11762940857716 A 221.3388128195785,221.3388128195785 0 1 0 848.5,664.3388128195785 Z "/><path class="wedge" fill="rgb(216,140,140)" d=" M 1083.9136145220316,390.77732995170413 L 1194.4891377323422,366.2479539606256 A 354.4,354.4 0 0,1 1196.1850915758564,374.33824138657366 L 1085.0675542872534,396.2820224340963 A 241.1364285405689,241.1364285405689 0 0 0 1083.9136145220316,390.77732995170413 Z "/><path class="wedge" fill="rgb(219,149,149)" d=" M 848.5,684.1364285405689 L 848.5,797.4 A 354.4,354.4 0 1,1 1191.122752070792,352.39641418003094 L 1081.6231003698974,381.3526379864665 A 241.1364285405689,241.1364285405689 0 1 0 848.5,684.1364285405689 Z "/><path class="wedge" fill="rgb(219,149,149)" d=" M 1094.1925046331385,370.83085205967564 L 1188.5340873459381,343.1191737978958 A 354.4,354.4 0 0,1 1191.122752070792,352.39641418003094 L 1096.0629509900587,377.5341459657702 A 256.072631781175,256.072631781175 0 0 0 1094.1925046331385,370.83085205967564 Z "/><path class="wedge" fill="rgb(223,159,159)" d=" M 848.5,699.072631781175 L 848.5,797.4 A 354.4,354.4 0 1,1 1069.8000380886697,166.18660953278766 L 1008.4009118697514,242.98777254737843 A 256.072631781175,256.072631781175 0 1 0 848.5,699.072631781175 Z "/><path class="wedge" fill="rgb(223,159,159)" d=" M 1014.3996871617242,232.85801805692884 L 1068.100404837739,164.83633919021503 A 354.4,354.4 0 0,1 1069.8000380886697,166.18660953278766 L 1015.6836949249494,233.87809553621253 A 267.7356135730172,267.7356135730172 0 0 0 1014.3996871617242,232.85801805692884 Z "/><path class="wedge" fill="rgb(226,168,168)" d=" M 848.5,710.7356135730172 L 848.5,797.4 A 354.4,354.4 0 1,1 1056.1458454990761,155.80222346443253 L 1005.3684758763632,226.0330899617482 A 267.7356135730172,267.7356135730172 0 1 0 848.5,710.7356135730172 Z "/><path class="wedge" fill="rgb(226,168,168)" d=" M 1010.3052307528815,218.05788435992378 L 1055.4486191632022,155.2994107992758 A 354.4,354.4 0 0,1 1056.1458454990761,155.80222346443253 L 1010.8503654274651,218.45101440176768 A 277.0918405287796,277.0918405287796 0 0 0 1010.3052307528815,218.05788435992378 Z "/><path class="wedge" fill="rgb(229,178,178)" d=" M 848.5,720.0918405287796 L 848.5,797.4 A 354.4,354.4 0 1,1 1055.427059427503,155.28390368857248 L 1010.288374017988,218.04575994162226 A 277.0918405287796,277.0918405287796 0 1 0 848.5,720.0918405287796 Z "/><path class="wedge" fill="rgb(229,178,178)" d=" M 1011.7055118905116,209.64712615226165 L 1051.6168480136516,152.58149843200562 A 354.4,354.4 0 0,1 1055.427059427503,155.28390368857248 L 1014.7670378559346,211.81852373718266 A 284.76236205728173,284.76236205728173 0 0 0 1011.7055118905116,209.64712615226165 Z "/><path class="wedge" fill="rgb(229,178,178)" d=" M 848.5,727.7623620572817 L 848.5,797.4 A 354.4,354.4 0 1,1 1051.29715521348,152.35816915433588 L 1011.4486369556653,209.46767984124085 A 284.76236205728173,284.76236205728173 0 1 0 848.5,727.7623620572817 Z "/><path class="wedge" fill="rgb(229,178,178)" d=" M 596.9161724334837,589.5678245073533 L 542.276465249782,621.3998507989343 A 354.4,354.4 0 0,1 1051.29715521348,152.35816915433588 L 1015.1118986243983,204.21762060275435 A 291.1641280684091,291.1641280684091 0 0 0 596.9161724334837,589.5678245073533 Z "/><path class="wedge" fill="rgb(229,178,178)" d=" M 848.5,734.1641280684091 L 848.5,797.4 A 354.4,354.4 0 0,1 700.1403015751486,764.8520776432663 L 726.6122397506658,707.4237572065676 A 291.1641280684091,291.1641280684091 0 0 0 848.5,734.1641280684091 Z "/><path class="wedge" fill="rgb(229,180,178)" d=" M 726.6122397506658,707.4237572065676 L 700.1403015751486,764.8520776432663 A 354.4,354.4 0 0,1 632.1098078681841,723.668211148245 L 670.7204807714004,673.5883605403468 A 291.1641280684091,291.1641280684091 0 0 0 726.6122397506658,707.4237572065676 Z "/><path class="wedge" fill="rgb(229,180,178)" d=" M 670.7204807714004,673.5883605403468 L 632.1098078681841,723.668211148245 A 354.4,354.4 0 0,1 582.0221881403586,676.6427524801433 L 629.5700345945539,634.9536916066141 A 291.1641280684091,291.1641280684091 0 0 0 670.7204807714004,673.5883605403468 Z "/><path class="wedge" fill="rgb(229,181,178)" d=" M 629.5700345945539,634.9536916066141 L 582.0221881403586,676.6427524801433 A 354.4,354.4 0 0,1 542.276465249782,621.3998507989343 L 596.9161724334837,589.5678245073533 A 291.1641280684091,291.1641280684091 0 0 0 629.5700345945539,634.9536916066141 Z "/><path class="wedge" fill="rgb(229,192,178)" d=" M 1011.4486369556653,209.46767984124085 L 1051.29715521348,152.35816915433588 A 354.4,354.4 0 0,1 1051.6168480136516,152.58149843200562 L 1011.7055118905116,209.64712615226165 A 284.76236205728173,284.76236205728173 0 0 0 1011.4486369556653,209.46767984124085 Z "/><path class="wedge" fill="url(#hiddenPattern)" d=" M 1011.4486369556653,209.46767984124085 L 1051.29715521348,152.35816915433588 A 354.4,354.4 0 0,1 1051.6168480136516,152.58149843200562 L 1011.7055118905116,209.64712615226165 A 284.76236205728173,284.76236205728173 0 0 0 1011.4486369556653,209.46767984124085 Z "/><path class="wedge" fill="rgb(226,185,168)" d=" M 1010.288374017988,218.04575994162226 L 1055.427059427503,155.28390368857248 A 354.4,354.4 0 0,1 1055.4486191632022,155.2994107992758 L 1010.3052307528815,218.05788435992378 A 277.0918405287796,277.0918405287796 0 0 0 1010.288374017988,218.04575994162226 Z "/><path class="wedge" fill="url(#hiddenPattern)" d=" M 1010.288374017988,218.04575994162226 L 1055.427059427503,155.28390368857248 A 354.4,354.4 0 0,1 1055.4486191632022,155.2994107992758 L 1010.3052307528815,218.05788435992378 A 277.0918405287796,277.0918405287796 0 0 0 1010.288374017988,218.04575994162226 Z "/><path class="wedge" fill="rgb(223,177,159)" d=" M 1005.3684758763632,226.0330899617482 L 1056.1458454990761,155.80222346443253 A 354.4,354.4 0 0,1 1068.100404837739,164.83633919021503 L 1014.3996871617242,232.85801805692884 A 267.7356135730172,267.7356135730172 0 0 0 1005.3684758763632,226.0330899617482 Z "/><path class="wedge" fill="url(#hiddenPattern)" d=" M 1005.3684758763632,226.0330899617482 L 1056.1458454990761,155.80222346443253 A 354.4,354.4 0 0,1 1068.100404837739,164.83633919021503 L 1014.3996871617242,232.85801805692884 A 267.7356135730172,267.7356135730172 0 0 0 1005.3684758763632,226.0330899617482 Z "/><path class="wedge" fill="rgb(223,178,159)" d=" M 1008.4009118697514,242.98777254737843 L 1069.8000380886697,166.18660953278766 A 354.4,354.4 0 0,1 1188.5340873459381,343.1191737978958 L 1094.1925046331385,370.83085205967564 A 256.072631781175,256.072631781175 0 0 0 1008.4009118697514,242.98777254737843 Z "/><path class="wedge" fill="rgb(223,178,159)" d=" M 1105.3594923986373,367.4648430197274 L 1188.5033446848524,343.01457304630134 A 354.4,354.4 0 0,1 1188.5340873459381,343.1191737978958 L 1105.3827173005238,367.5438648775388 A 267.7356135730172,267.7356135730172 0 0 0 1105.3594923986373,367.4648430197274 Z "/><path class="wedge" fill="rgb(226,185,168)" d=" M 1015.6836949249494,233.87809553621253 L 1069.8000380886697,166.18660953278766 A 354.4,354.4 0 0,1 1188.3519234872638,342.50109402582024 L 1105.2450994888054,367.07692930470097 A 267.7356135730172,267.7356135730172 0 0 0 1015.6836949249494,233.87809553621253 Z "/><path class="wedge" fill="rgb(226,185,168)" d=" M 1114.1464886889328,364.1848292847926 L 1188.2614141639785,342.1955286443435 A 354.4,354.4 0 0,1 1188.3519234872638,342.50109402582024 L 1114.2172544761058,364.42373920001626 A 277.0918405287796,277.0918405287796 0 0 0 1114.1464886889328,364.1848292847926 Z "/><path class="wedge" fill="rgb(229,193,178)" d=" M 1021.5260577400635,226.57016973032844 L 1069.8000380886697,166.18660953278766 A 354.4,354.4 0 0,1 1188.2554499704395,342.17542851375845 L 1114.1418255135236,364.16911375945773 A 277.0918405287796,277.0918405287796 0 0 0 1021.5260577400635,226.57016973032844 Z "/><path class="wedge" fill="rgb(229,193,178)" d=" M 1119.5898478272727,355.82261044612255 L 1185.8839203183022,334.5036852669479 A 354.4,354.4 0 0,1 1188.2554499704395,342.17542851375845 L 1121.495385032215,361.9868986178459 A 284.76236205728173,284.76236205728173 0 0 0 1119.5898478272727,355.82261044612255 Z "/><path class="wedge" fill="rgb(229,193,178)" d=" M 1026.3158057830021,220.5789082434311 L 1069.8000380886697,166.18660953278766 A 354.4,354.4 0 0,1 1148.6848994067918,254.61638561665134 L 1089.7002285807155,291.6327228987289 A 284.76236205728173,284.76236205728173 0 0 0 1026.3158057830021,220.5789082434311 Z "/><path class="wedge" fill="rgb(229,193,178)" d=" M 1048.694686079435,231.57947796064502 L 1092.1735500943382,185.6625542513837 A 354.4,354.4 0 0,1 1148.6848994067918,254.61638561665134 L 1095.1226706971831,288.2298227305216 A 291.1641280684091,291.1641280684091 0 0 0 1048.694686079435,231.57947796064502 Z "/><path class="wedge" fill="rgb(229,193,178)" d=" M 1030.313297493209,215.5786414417439 L 1069.8000380886697,166.18660953278766 A 354.4,354.4 0 0,1 1083.3149602879403,177.5545358741781 L 1041.4167414493686,224.91817970680273 A 291.1641280684091,291.1641280684091 0 0 0 1030.313297493209,215.5786414417439 Z "/><path class="wedge" fill="rgb(229,193,178)" d=" M 1041.4167414493686,224.91817970680273 L 1083.3149602879403,177.5545358741781 A 354.4,354.4 0 0,1 1092.1735500943382,185.6625542513837 L 1048.694686079435,231.57947796064502 A 291.1641280684091,291.1641280684091 0 0 0 1041.4167414493686,224.91817970680273 Z "/><path class="wedge" fill="url(#hiddenPattern)" d=" M 1041.4167414493686,224.91817970680273 L 1083.3149602879403,177.5545358741781 A 354.4,354.4 0 0,1 1092.1735500943382,185.6625542513837 L 1048.694686079435,231.57947796064502 A 291.1641280684091,291.1641280684091 0 0 0 1041.4167414493686,224.91817970680273 Z "/><path class="wedge" fill="rgb(229,194,178)" d=" M 1089.7002285807155,291.6327228987289 L 1148.6848994067918,254.61638561665134 A 354.4,354.4 0 0,1 1184.8744191480414,331.4132169886692 L 1118.778708048088,353.33940207483096 A 284.76236205728173,284.76236205728173 0 0 0 1089.7002285807155,291.6327228987289 Z "/><path class="wedge" fill="rgb(229,194,178)" d=" M 1101.717649850778,299.2732757004259 L 1156.712195308727,268.0582878128399 A 354.4,354.4 0 0,1 1184.8744191480414,331.4132169886692 L 1124.8548658458155,351.3237348209568 A 291.1641280684091,291.1641280684091 0 0 0 1101.717649850778,299.2732757004259 Z "/><path class="wedge" fill="rgb(229,194,178)" d=" M 1095.1226706971831,288.2298227305216 L 1148.6848994067918,254.61638561665134 A 354.4,354.4 0 0,1 1156.6694079012605,267.9829264506273 L 1101.6824970342225,299.21136112559896 A 291.1641280684091,291.1641280684091 0 0 0 1095.1226706971831,288.2298227305216 Z "/><path class="wedge" fill="rgb(229,194,178)" d=" M 1103.3965829057233,291.36964718150415 L 1153.0826514954008,261.81289116487574 A 354.4,354.4 0 0,1 1156.6694079012605,267.9829264506273 L 1106.3982376194117,296.5331747265704 A 296.58730902194026,296.58730902194026 0 0 0 1103.3965829057233,291.36964718150415 Z "/><path class="wedge" fill="rgb(229,194,178)" d=" M 1099.716228905424,285.34709578503316 L 1148.6848994067918,254.61638561665134 A 354.4,354.4 0 0,1 1153.0826514954008,261.81289116487574 L 1103.3965829057233,291.36964718150415 A 296.58730902194026,296.58730902194026 0 0 0 1099.716228905424,285.34709578503316 Z "/><path class="wedge" fill="url(#hiddenPattern)" d=" M 1099.716228905424,285.34709578503316 L 1148.6848994067918,254.61638561665134 A 354.4,354.4 0 0,1 1153.0826514954008,261.81289116487574 L 1103.3965829057233,291.36964718150415 A 296.58730902194026,296.58730902194026 0 0 0 1099.716228905424,285.34709578503316 Z "/><path class="wedge" fill="rgb(229,194,178)" d=" M 1101.6824970342225,299.21136112559896 L 1156.6694079012605,267.9829264506273 A 354.4,354.4 0 0,1 1156.712195308727,268.0582878128399 L 1101.717649850778,299.2732757004259 A 291.1641280684091,291.1641280684091 0 0 0 1101.6824970342225,299.21136112559896 Z "/><path class="wedge" fill="url(#hiddenPattern)" d=" M 1101.6824970342225,299.21136112559896 L 1156.6694079012605,267.9829264506273 A 354.4,354.4 0 0,1 1156.712195308727,268.0582878128399 L 1101.717649850778,299.2732757004259 A 291.1641280684091,291.1641280684091 0 0 0 1101.6824970342225,299.21136112559896 Z "/><path class="wedge" fill="rgb(229,195,178)" d=" M 1118.778708048088,353.33940207483096 L 1184.8744191480414,331.4132169886692 A 354.4,354.4 0 0,1 1185.8839203183022,334.5036852669479 L 1119.5898478272727,355.82261044612255 A 284.76236205728173,284.76236205728173 0 0 0 1118.778708048088,353.33940207483096 Z "/><path class="wedge" fill="url(#hiddenPattern)" d=" M 1118.778708048088,353.33940207483096 L 1184.8744191480414,331.4132169886692 A 354.4,354.4 0 0,1 1185.8839203183022,334.5036852669479 L 1119.5898478272727,355.82261044612255 A 284.76236205728173,284.76236205728173 0 0 0 1118.778708048088,353.33940207483096 Z "/><path class="wedge" fill="rgb(226,188,168)" d=" M 1114.1418255135236,364.16911375945773 L 1188.2554499704395,342.17542851375845 A 354.4,354.4 0 0,1 1188.2614141639785,342.1955286443435 L 1114.1464886889328,364.1848292847926 A 277.0918405287796,277.0918405287796 0 0 0 1114.1418255135236,364.16911375945773 Z "/><path class="wedge" fill="url(#hiddenPattern)" d=" M 1114.1418255135236,364.16911375945773 L 1188.2554499704395,342.17542851375845 A 354.4,354.4 0 0,1 1188.2614141639785,342.1955286443435 L 1114.1464886889328,364.1848292847926 A 277.0918405287796,277.0918405287796 0 0 0 1114.1418255135236,364.16911375945773 Z "/><path class="wedge" fill="rgb(223,180,159)" d=" M 1105.2450994888054,367.07692930470097 L 1188.3519234872638,342.50109402582024 A 354.4,354.4 0 0,1 1188.5033446848524,343.01457304630134 L 1105.3594923986373,367.4648430197274 A 267.7356135730172,267.7356135730172 0 0 0 1105.2450994888054,367.07692930470097 Z "/><path class="wedge" fill="url(#hiddenPattern)" d=" M 1105.2450994888054,367.07692930470097 L 1188.3519234872638,342.50109402582024 A 354.4,354.4 0 0,1 1188.5033446848524,343.01457304630134 L 1105.3594923986373,367.4648430197274 A 267.7356135730172,267.7356135730172 0 0 0 1105.2450994888054,367.07692930470097 Z "/><path class="wedge" fill="rgb(216,166,140)" d=" M 1081.6231003698974,381.3526379864665 L 1191.122752070792,352.39641418003094 A 354.4,354.4 0 0,1 1194.4891377323422,366.2479539606256 L 1083.9136145220316,390.77732995170413 A 241.1364285405689,241.1364285405689 0 0 0 1081.6231003698974,381.3526379864665 Z "/><path class="wedge" fill="url(#hiddenPattern)" d=" M 1081.6231003698974,381.3526379864665 L 1191.122752070792,352.39641418003094 A 354.4,354.4 0 0,1 1194.4891377323422,366.2479539606256 L 1083.9136145220316,390.77732995170413 A 241.1364285405689,241.1364285405689 0 0 0 1081.6231003698974,381.3526379864665 Z "/><path class="wedge" fill="rgb(216,167,140)" d=" M 1065.6450491096684,400.11762940857716 L 1196.1850915758564,374.33824138657366 A 354.4,354.4 0 0,1 857.661264150774,797.2815705609871 L 854.2216233946357,664.2648482839295 A 221.3388128195785,221.3388128195785 0 0 0 1065.6450491096684,400.11762940857716 Z "/><path class="wedge" fill="rgb(216,167,140)" d=" M 854.7381467353985,684.0557252890055 L 857.6682505891195,797.2813898317763 A 354.4,354.4 0 0,1 857.661264150774,797.2815705609871 L 854.7333931101422,684.0558482585215 A 241.1364285405689,241.1364285405689 0 0 0 854.7381467353985,684.0557252890055 Z "/><path class="wedge" fill="rgb(219,174,149)" d=" M 1085.0675542872534,396.2820224340963 L 1196.1850915758564,374.33824138657366 A 354.4,354.4 0 0,1 857.6738397372288,797.2812451492114 L 854.741949633857,684.0556268458989 A 241.1364285405689,241.1364285405689 0 0 0 1085.0675542872534,396.2820224340963 Z "/><path class="wedge" fill="rgb(219,174,149)" d=" M 855.357760997513,698.9807880709766 L 857.9910201086834,797.2728899270965 A 354.4,354.4 0 0,1 857.6738397372288,797.2812451492114 L 855.128581504094,698.9868251582117 A 256.072631781175,256.072631781175 0 0 0 855.357760997513,698.9807880709766 Z "/><path class="wedge" fill="rgb(223,181,159)" d=" M 1099.7207574235563,393.3882696646054 L 1196.1850915758564,374.33824138657366 A 354.4,354.4 0 0,1 858.1894286478968,797.2675189351647 L 855.5011215979764,698.9769072469381 A 256.072631781175,256.072631781175 0 0 0 1099.7207574235563,393.3882696646054 Z "/><path class="wedge" fill="rgb(223,181,159)" d=" M 855.8263252174495,710.6353559119724 L 858.1978120408176,797.2672895450849 A 354.4,354.4 0 0,1 858.1894286478968,797.2675189351647 L 855.8199918854871,710.6355292073838 A 267.7356135730172,267.7356135730172 0 0 0 855.8263252174495,710.6353559119724 Z "/><path class="wedge" fill="rgb(226,189,168)" d=" M 1111.1627576841213,391.1286736135212 L 1196.1850915758564,374.33824138657366 A 354.4,354.4 0 0,1 858.2047981974365,797.267098235141 L 855.8316029909508,710.635211384644 A 267.7356135730172,267.7356135730172 0 0 0 1111.1627576841213,391.1286736135212 Z "/><path class="wedge" fill="rgb(226,189,168)" d=" M 857.3079911583321,719.9518141832282 L 859.7654059410627,797.2209065385371 A 354.4,354.4 0 0,1 858.2047981974365,797.267098235141 L 856.0878114968625,719.9879297087055 A 277.0918405287796,277.0918405287796 0 0 0 857.3079911583321,719.9518141832282 Z "/><path class="wedge" fill="rgb(229,196,178)" d=" M 1120.341709788858,389.31599021406015 L 1196.1850915758564,374.33824138657366 A 354.4,354.4 0 0,1 859.8184936674627,797.2192141896027 L 857.3494984264407,719.9504910001551 A 277.0918405287796,277.0918405287796 0 0 0 1120.341709788858,389.31599021406015 Z "/><path class="wedge" fill="rgb(229,196,178)" d=" M 861.401170268821,727.4699679230433 L 864.5561062572955,797.0361019046708 A 354.4,354.4 0 0,1 859.8184936674627,797.2192141896027 L 857.5944723241453,727.6170996577468 A 284.76236205728173,284.76236205728173 0 0 0 861.401170268821,727.4699679230433 Z "/><path class="wedge" fill="rgb(229,196,178)" d=" M 1127.8668959628758,387.8298968234588 L 1196.1850915758564,374.33824138657366 A 354.4,354.4 0 0,1 865.0196705657794,797.0147743871689 L 861.7736467571092,727.4528311446555 A 284.76236205728173,284.76236205728173 0 0 0 1127.8668959628758,387.8298968234588 Z "/><path class="wedge" fill="rgb(229,196,178)" d=" M 1134.1473660583215,386.5896132101528 L 1196.1850915758564,374.33824138657366 A 354.4,354.4 0 0,1 865.0196705657794,797.0147743871689 L 862.0720526982576,733.8476385659555 A 291.1641280684091,291.1641280684091 0 0 0 1134.1473660583215,386.5896132101528 Z "/><path class="wedge" fill="rgb(229,203,178)" d=" M 861.7736467571092,727.4528311446555 L 865.0196705657794,797.0147743871689 A 354.4,354.4 0 0,1 864.5561062572955,797.0361019046708 L 861.401170268821,727.4699679230433 A 284.76236205728173,284.76236205728173 0 0 0 861.7736467571092,727.4528311446555 Z "/><path class="wedge" fill="url(#hiddenPattern)" d=" M 861.7736467571092,727.4528311446555 L 865.0196705657794,797.0147743871689 A 354.4,354.4 0 0,1 864.5561062572955,797.0361019046708 L 861.401170268821,727.4699679230433 A 284.76236205728173,284.76236205728173 0 0 0 861.7736467571092,727.4528311446555 Z "/><path class="wedge" fill="rgb(226,196,168)" d=" M 857.3494984264407,719.9504910001551 L 859.8184936674627,797.2192141896027 A 354.4,354.4 0 0,1 859.7654059410627,797.2209065385371 L 857.3079911583321,719.9518141832282 A 277.0918405287796,277.0918405287796 0 0 0 857.3494984264407,719.9504910001551 Z "/><path class="wedge" fill="url(#hiddenPattern)" d=" M 857.3494984264407,719.9504910001551 L 859.8184936674627,797.2192141896027 A 354.4,354.4 0 0,1 859.7654059410627,797.2209065385371 L 857.3079911583321,719.9518141832282 A 277.0918405287796,277.0918405287796 0 0 0 857.3494984264407,719.9504910001551 Z "/><path class="wedge" fill="rgb(223,190,159)" d=" M 855.8316029909508,710.635211384644 L 858.2047981974365,797.267098235141 A 354.4,354.4 0 0,1 858.1978120408176,797.2672895450849 L 855.8263252174495,710.6353559119724 A 267.7356135730172,267.7356135730172 0 0 0 855.8316029909508,710.635211384644 Z "/><path class="wedge" fill="url(#hiddenPattern)" d=" M 855.8316029909508,710.635211384644 L 858.2047981974365,797.267098235141 A 354.4,354.4 0 0,1 858.1978120408176,797.2672895450849 L 855.8263252174495,710.6353559119724 A 267.7356135730172,267.7356135730172 0 0 0 855.8316029909508,710.635211384644 Z "/><path class="wedge" fill="rgb(219,183,149)" d=" M 855.5011215979764,698.9769072469381 L 858.1894286478968,797.2675189351647 A 354.4,354.4 0 0,1 857.9910201086834,797.2728899270965 L 855.357760997513,698.9807880709766 A 256.072631781175,256.072631781175 0 0 0 855.5011215979764,698.9769072469381 Z "/><path class="wedge" fill="url(#hiddenPattern)" d=" M 855.5011215979764,698.9769072469381 L 858.1894286478968,797.2675189351647 A 354.4,354.4 0 0,1 857.9910201086834,797.2728899270965 L 855.357760997513,698.9807880709766 A 256.072631781175,256.072631781175 0 0 0 855.5011215979764,698.9769072469381 Z "/><path class="wedge" fill="rgb(216,177,140)" d=" M 854.741949633857,684.0556268458989 L 857.6738397372288,797.2812451492114 A 354.4,354.4 0 0,1 857.6682505891195,797.2813898317763 L 854.7381467353985,684.0557252890055 A 241.1364285405689,241.1364285405689 0 0 0 854.741949633857,684.0556268458989 Z "/><path class="wedge" fill="url(#hiddenPattern)" d=" M 854.741949633857,684.0556268458989 L 857.6738397372288,797.2812451492114 A 354.4,354.4 0 0,1 857.6682505891195,797.2813898317763 L 854.7381467353985,684.0557252890055 A 241.1364285405689,241.1364285405689 0 0 0 854.741949633857,684.0556268458989 Z "/><path class="wedge" fill="rgb(213,171,130)" d=" M 854.2216233946357,664.2648482839295 L 857.661264150774,797.2815705609871 A 354.4,354.4 0 0,1 857.2378794382159,797.2922655985072 L 853.9572005118943,664.2715278180937 A 221.3388128195785,221.3388128195785 0 0 0 854.2216233946357,664.2648482839295 Z "/><path class="wedge" fill="url(#hiddenPattern)" d=" M 854.2216233946357,664.2648482839295 L 857.661264150774,797.2815705609871 A 354.4,354.4 0 0,1 857.2378794382159,797.2922655985072 L 853.9572005118943,664.2715278180937 A 221.3388128195785,221.3388128195785 0 0 0 854.2216233946357,664.2648482839295 Z "/><path class="wedge" fill="rgb(210,165,121)" d=" M 853.0822533489084,636.8280184334202 L 856.875966418819,797.3010064712641 A 354.4,354.4 0 0,1 854.3912664384325,797.3510307304769 L 851.7229445555281,636.8553852849383 A 193.882174981559,193.882174981559 0 0 0 853.0822533489084,636.8280184334202 Z "/><path class="wedge" fill="url(#hiddenPattern)" d=" M 853.0822533489084,636.8280184334202 L 856.875966418819,797.3010064712641 A 354.4,354.4 0 0,1 854.3912664384325,797.3510307304769 L 851.7229445555281,636.8553852849383 A 193.882174981559,193.882174981559 0 0 0 853.0822533489084,636.8280184334202 Z "/><path class="wedge" fill="rgb(207,159,111)" d=" M 850.5644001440947,596.3536032029162 L 853.2703941307283,797.3678926480748 A 354.4,354.4 0 0,1 853.1907291874877,797.3689561173348 L 850.5299249381058,596.3540634219324 A 153.3674977407939,153.3674977407939 0 0 0 850.5644001440947,596.3536032029162 Z "/><path class="wedge" fill="url(#hiddenPattern)" d=" M 850.5644001440947,596.3536032029162 L 853.2703941307283,797.3678926480748 A 354.4,354.4 0 0,1 853.1907291874877,797.3689561173348 L 850.5299249381058,596.3540634219324 A 153.3674977407939,153.3674977407939 0 0 0 850.5644001440947,596.3536032029162 Z "/><path class="wedge" fill="rgb(101,204,204)" d=" M 849.6633527137307,530.9923099507193 L 853.1851386562064,797.3690300742604 A 354.4,354.4 0 0,1 851.7301673377964,797.3852790663994 L 849.3020731538546,530.9963446891737 A 88,88 0 0 0 849.6633527137307,530.9923099507193 Z "/><path class="wedge" fill="url(#hiddenPattern)" d=" M 849.6633527137307,530.9923099507193 L 853.1851386562064,797.3690300742604 A 354.4,354.4 0 0,1 851.7301673377964,797.3852790663994 L 849.3020731538546,530.9963446891737 A 88,88 0 0 0 849.6633527137307,530.9923099507193 Z "/><rect fill="rgb(101,204,204)" x="1811.71" y="821.3766666666668" width="22" height="22"/><rect fill="url(#hiddenPattern)" style="stroke:none" x="1811.71" y="821.3766666666668" width="22" height="22"/><path class="line" d="M 852.4576613362074,797.377901281595 L 853.1172715589087,856.4408848285275 A 413.46666666666664,413.46666666666664 0 0,0 987.570111454618,832.3766666666668 L 1276.7333333333333,832.3766666666668 L 1722.0324283854168,832.3766666666668"/><text x="1804.3766666666668" y="832.3766666666668" style="font-color:black;font-weight:normal" text-anchor="end">Viruses&#160;&#160;&#160;0.07%</text><circle cx="848.5" cy="443" r="88"/><circle cx="848.5" cy="443" r="354.4"/><text x="848.5" y="443" text-anchor="middle" style="font-color:black;font-weight:bold" transform="rotate(360,848.5,443)">root</text><rect fill="rgb(220,220,220)" x="1811.71" y="850.71" width="22" height="22"/><path class="line" d="M 850.1151004408434,797.3963197474911 L 850.4515796993525,871.2288863615518 A 428.23333333333335,428.23333333333335 0 0,0 938.3093741085961,861.71 L 1265.7333333333333,861.71 L 1711.4406315104168,861.71"/><text x="1804.3766666666668" y="861.71" style="font-color:black;font-weight:normal" text-anchor="end">[other root]&#160;&#160;&#160;0.1%</text><path class="line" d=" M 849.6633527137307,530.9923099507193 A 88,88 0 1 0 848.5,531"/><line x1="853.1851386562064" y1="797.3690300742604" x2="849.6633527137307" y2="530.9923099507193"/><text x="848.5" y="322.3162511296031" text-anchor="middle" style="font-color:black;font-weight:normal" transform="rotate(359.6212662372309,848.5,443)">cellular organisms</text><path class="line" d=" M 850.5644001440947,596.3536032029162 A 153.3674977407939,153.3674977407939 0 1 0 848.5,596.3674977407939"/><line x1="853.2703941307283" y1="797.3678926480748" x2="850.5644001440947" y2="596.3536032029162"/><text x="848.5" y="277.4780990869766" text-anchor="middle" style="font-color:black;font-weight:normal" transform="rotate(359.6143740058678,848.5,443)">Bacteria</text><path class="line" d=" M 853.0822533489084,636.8280184334202 A 193.882174981559,193.882174981559 0 1 0 848.5,636.882174981559"/><line x1="856.875966418819" y1="797.3010064712641" x2="853.0822533489084" y2="636.8280184334202"/><text x="848.5" y="240.88083366703515" text-anchor="middle" style="font-color:black;font-weight:normal" transform="rotate(359.3228665154309,848.5,443)">Terrabacteria group</text><path class="line" d=" M 1065.6450491096684,400.11762940857716 A 221.3388128195785,221.3388128195785 0 1 0 848.5,664.3388128195785"/><line x1="1196.1850915758564" y1="374.33824138657366" x2="1065.6450491096684" y2="400.11762940857716"/><text x="848.5" y="211.7623793199263" text-anchor="middle" style="font-color:black;font-weight:normal" transform="rotate(309.4144114172512,848.5,443)">Firmicutes</text><path class="line" d=" M 1081.6231003698974,381.3526379864665 A 241.1364285405689,241.1364285405689 0 1 0 848.5,684.1364285405689"/><line x1="1191.122752070792" y1="352.39641418003094" x2="1081.6231003698974" y2="381.3526379864665"/><text x="848.5" y="194.39546983912805" text-anchor="middle" style="font-color:black;font-weight:normal" transform="rotate(307.59384545081343,848.5,443)">Bacilli</text><path class="line" d=" M 1008.4009118697514,242.98777254737843 A 256.072631781175,256.072631781175 0 1 0 848.5,699.072631781175"/><line x1="1069.8000380886697" y1="166.18660953278766" x2="1008.4009118697514" y2="242.98777254737843"/><path class="line" d=" M 1005.3684758763632,226.0330899617482 A 267.7356135730172,267.7356135730172 0 1 0 848.5,710.7356135730172"/><line x1="1056.1458454990761" y1="155.80222346443253" x2="1005.3684758763632" y2="226.0330899617482"/><path class="line" d=" M 1010.288374017988,218.04575994162226 A 277.0918405287796,277.0918405287796 0 1 0 848.5,720.0918405287796"/><line x1="1055.427059427503" y1="155.28390368857248" x2="1010.288374017988" y2="218.04575994162226"/><path class="line" d=" M 1011.4486369556653,209.46767984124085 A 284.76236205728173,284.76236205728173 0 1 0 848.5,727.7623620572817"/><line x1="1051.29715521348" y1="152.35816915433588" x2="1011.4486369556653" y2="209.46767984124085"/><text x="528.9188189713591" y="443" text-anchor="end" style="font-color:black;font-weight:normal" transform="rotate(17.452824622214056,848.5,443)">Enterococcus faecalis&#160;&#160;&#160;60%</text><path class="line" d=" M 726.6122397506658,707.4237572065676 A 291.1641280684091,291.1641280684091 0 0 0 848.5,734.1641280684091"/><line x1="700.1403015751486" y1="764.8520776432663" x2="726.6122397506658" y2="707.4237572065676"/><text x="525.7179359657955" y="443" text-anchor="end" style="font-color:black;font-weight:normal" transform="rotate(-77.62618495535114,848.5,443)">Enterococcus faecalis V583&#160;&#160;&#160;7%</text><path class="line" d=" M 670.7204807714004,673.5883605403468 A 291.1641280684091,291.1641280684091 0 0 0 726.6122397506658,707.4237572065676"/><line x1="632.1098078681841" y1="723.668211148245" x2="670.7204807714004" y2="673.5883605403468"/><text x="525.7179359657955" y="443" text-anchor="end" style="font-color:black;font-weight:normal" transform="rotate(-58.810393334245624,848.5,443)">Enterococcus faecalis str. Symbioflor 1&#160;&#160;&#160;4%</text><path class="line" d=" M 629.5700345945539,634.9536916066141 A 291.1641280684091,291.1641280684091 0 0 0 670.7204807714004,673.5883605403468"/><line x1="582.0221881403586" y1="676.6427524801433" x2="629.5700345945539" y2="634.9536916066141"/><text x="525.7179359657955" y="443" text-anchor="end" style="font-color:black;font-weight:normal" transform="rotate(-46.806047085615575,848.5,443)">Enterococcus faecalis D32&#160;&#160;&#160;3%</text><path class="line" d=" M 596.9161724334837,589.5678245073533 A 291.1641280684091,291.1641280684091 0 0 0 629.5700345945539,634.9536916066141"/><line x1="542.276465249782" y1="621.3998507989343" x2="596.9161724334837" y2="589.5678245073533"/><text x="525.7179359657955" y="443" text-anchor="end" style="font-color:black;font-weight:normal" transform="rotate(-35.73395986938655,848.5,443)">Enterococcus faecalis OG1RF&#160;&#160;&#160;3%</text><path class="line" d=" M 1011.7055118905116,209.64712615226165 A 284.76236205728173,284.76236205728173 0 0 0 1011.4486369556653,209.46767984124085"/><line x1="1051.6168480136516" y1="152.58149843200562" x2="1011.7055118905116" y2="209.64712615226165"/><path class="line" d=" M 1010.3052307528815,218.05788435992378 A 277.0918405287796,277.0918405287796 0 0 0 1010.288374017988,218.04575994162226"/><line x1="1055.4486191632022" y1="155.2994107992758" x2="1010.3052307528815" y2="218.05788435992378"/><line x1="1194.65" y1="443" x2="1211.15" y2="443" class="tick" transform="rotate(307.07850992217675,848.5,443)"/><text x="1213.9" y="443" text-anchor="start" style="font-color:black;font-weight:normal" transform="rotate(307.07850992217675,848.5,443)">5 more</text><path class="line" d=" M 1014.3996871617242,232.85801805692884 A 267.7356135730172,267.7356135730172 0 0 0 1005.3684758763632,226.0330899617482"/><line x1="1068.100404837739" y1="164.83633919021503" x2="1014.3996871617242" y2="232.85801805692884"/><path class="line" d=" M 1094.1925046331385,370.83085205967564 A 256.072631781175,256.072631781175 0 0 0 1008.4009118697514,242.98777254737843"/><line x1="1188.5340873459381" y1="343.1191737978958" x2="1094.1925046331385" y2="370.83085205967564"/><path class="line" d=" M 1105.2450994888054,367.07692930470097 A 267.7356135730172,267.7356135730172 0 0 0 1015.6836949249494,233.87809553621253"/><line x1="1188.3519234872638" y1="342.50109402582024" x2="1105.2450994888054" y2="367.07692930470097"/><path class="line" d=" M 1114.1418255135236,364.16911375945773 A 277.0918405287796,277.0918405287796 0 0 0 1021.5260577400635,226.57016973032844"/><line x1="1188.2554499704395" y1="342.17542851375845" x2="1114.1418255135236" y2="364.16911375945773"/><path class="line" d=" M 1089.7002285807155,291.6327228987289 A 284.76236205728173,284.76236205728173 0 0 0 1026.3158057830021,220.5789082434311"/><line x1="1148.6848994067918" y1="254.61638561665134" x2="1089.7002285807155" y2="291.6327228987289"/><text x="1168.081181028641" y="443" text-anchor="start" style="font-color:black;font-weight:normal" transform="rotate(318.2650533739921,848.5,443)">5%&#160;&#160;&#160;Staphylococcus epidermidis</text><path class="line" d=" M 1041.4167414493686,224.91817970680273 A 291.1641280684091,291.1641280684091 0 0 0 1030.313297493209,215.5786414417439"/><line x1="1083.3149602879403" y1="177.5545358741781" x2="1041.4167414493686" y2="224.91817970680273"/><text x="1171.2820640342045" y="443" text-anchor="start" style="font-color:black;font-weight:normal" transform="rotate(310.0684954723438,848.5,443)">0.8%&#160;&#160;&#160;Staphylococcus epidermidis RP62A</text><path class="line" d=" M 1048.694686079435,231.57947796064502 A 291.1641280684091,291.1641280684091 0 0 0 1041.4167414493686,224.91817970680273"/><line x1="1092.1735500943382" y1="185.6625542513837" x2="1048.694686079435" y2="231.57947796064502"/><path class="line" d=" M 1118.778708048088,353.33940207483096 A 284.76236205728173,284.76236205728173 0 0 0 1089.7002285807155,291.6327228987289"/><line x1="1184.8744191480414" y1="331.4132169886692" x2="1118.778708048088" y2="353.33940207483096"/><text x="1168.081181028641" y="443" text-anchor="start" style="font-color:black;font-weight:normal" transform="rotate(334.76844487909716,848.5,443)">4%&#160;&#160;&#160;Staphylococcus aureus</text><path class="line" d=" M 1101.6824970342225,299.21136112559896 A 291.1641280684091,291.1641280684091 0 0 0 1095.1226706971831,288.2298227305216"/><line x1="1156.6694079012605" y1="267.9829264506273" x2="1101.6824970342225" y2="299.21136112559896"/><path class="line" d=" M 1103.3965829057233,291.36964718150415 A 296.58730902194026,296.58730902194026 0 0 0 1099.716228905424,285.34709578503316"/><line x1="1153.0826514954008" y1="261.81289116487574" x2="1103.3965829057233" y2="291.36964718150415"/><path class="line" d=" M 1101.717649850778,299.2732757004259 A 291.1641280684091,291.1641280684091 0 0 0 1101.6824970342225,299.21136112559896"/><line x1="1156.712195308727" y1="268.0582878128399" x2="1101.717649850778" y2="299.2732757004259"/><path class="line" d=" M 1119.5898478272727,355.82261044612255 A 284.76236205728173,284.76236205728173 0 0 0 1118.778708048088,353.33940207483096"/><line x1="1185.8839203183022" y1="334.5036852669479" x2="1119.5898478272727" y2="355.82261044612255"/><path class="line" d=" M 1114.1464886889328,364.1848292847926 A 277.0918405287796,277.0918405287796 0 0 0 1114.1418255135236,364.16911375945773"/><line x1="1188.2614141639785" y1="342.1955286443435" x2="1114.1464886889328" y2="364.1848292847926"/><path class="line" d=" M 1105.3594923986373,367.4648430197274 A 267.7356135730172,267.7356135730172 0 0 0 1105.2450994888054,367.07692930470097"/><line x1="1188.5033446848524" y1="343.01457304630134" x2="1105.3594923986373" y2="367.4648430197274"/><line x1="1194.65" y1="443" x2="1211.15" y2="443" class="tick" transform="rotate(346.3400493880477,848.5,443)"/><text x="1213.9" y="443" text-anchor="start" style="font-color:black;font-weight:normal" transform="rotate(346.3400493880477,848.5,443)">4 more</text><path class="line" d=" M 1083.9136145220316,390.77732995170413 A 241.1364285405689,241.1364285405689 0 0 0 1081.6231003698974,381.3526379864665"/><line x1="1194.4891377323422" y1="366.2479539606256" x2="1083.9136145220316" y2="390.77732995170413"/><path class="line" d=" M 854.2216233946357,664.2648482839295 A 221.3388128195785,221.3388128195785 0 0 0 1065.6450491096684,400.11762940857716"/><line x1="857.661264150774" y1="797.2815705609871" x2="854.2216233946357" y2="664.2648482839295"/><text x="848.5" y="674.2376206800736" text-anchor="middle" style="font-color:black;font-weight:normal" transform="rotate(308.6737790142226,848.5,443)">Actinobacteria</text><path class="line" d=" M 854.741949633857,684.0556268458989 A 241.1364285405689,241.1364285405689 0 0 0 1085.0675542872534,396.2820224340963"/><line x1="857.6738397372288" y1="797.2812451492114" x2="854.741949633857" y2="684.0556268458989"/><text x="848.5" y="691.604530160872" text-anchor="middle" style="font-color:black;font-weight:normal" transform="rotate(308.67276212762806,848.5,443)">Actinobacteria</text><path class="line" d=" M 855.5011215979764,698.9769072469381 A 256.072631781175,256.072631781175 0 0 0 1099.7207574235563,393.3882696646054"/><line x1="858.1894286478968" y1="797.2675189351647" x2="855.5011215979764" y2="698.9769072469381"/><path class="line" d=" M 855.8316029909508,710.635211384644 A 267.7356135730172,267.7356135730172 0 0 0 1111.1627576841213,391.1286736135212"/><line x1="858.2047981974365" y1="797.267098235141" x2="855.8316029909508" y2="710.635211384644"/><path class="line" d=" M 857.3494984264407,719.9504910001551 A 277.0918405287796,277.0918405287796 0 0 0 1120.341709788858,389.31599021406015"/><line x1="859.8184936674627" y1="797.2192141896027" x2="857.3494984264407" y2="719.9504910001551"/><path class="line" d=" M 861.7736467571092,727.4528311446555 A 284.76236205728173,284.76236205728173 0 0 0 1127.8668959628758,387.8298968234588"/><line x1="865.0196705657794" y1="797.0147743871689" x2="861.7736467571092" y2="727.4528311446555"/><path class="line" d=" M 862.0720526982576,733.8476385659555 A 291.1641280684091,291.1641280684091 0 0 0 1134.1473660583215,386.5896132101528"/><text x="1171.2820640342045" y="443" text-anchor="start" style="font-color:black;font-weight:normal" transform="rotate(398.0785613942143,848.5,443)">27%&#160;&#160;&#160;Cutibacterium avidum 44067</text><path class="line" d=" M 861.401170268821,727.4699679230433 A 284.76236205728173,284.76236205728173 0 0 0 861.7736467571092,727.4528311446555"/><line x1="864.5561062572955" y1="797.0361019046708" x2="861.401170268821" y2="727.4699679230433"/><path class="line" d=" M 857.3079911583321,719.9518141832282 A 277.0918405287796,277.0918405287796 0 0 0 857.3494984264407,719.9504910001551"/><line x1="859.7654059410627" y1="797.2209065385371" x2="857.3079911583321" y2="719.9518141832282"/><path class="line" d=" M 855.8263252174495,710.6353559119724 A 267.7356135730172,267.7356135730172 0 0 0 855.8316029909508,710.635211384644"/><line x1="858.1978120408176" y1="797.2672895450849" x2="855.8263252174495" y2="710.6353559119724"/><path class="line" d=" M 855.357760997513,698.9807880709766 A 256.072631781175,256.072631781175 0 0 0 855.5011215979764,698.9769072469381"/><line x1="857.9910201086834" y1="797.2728899270965" x2="855.357760997513" y2="698.9807880709766"/><path class="line" d=" M 854.7381467353985,684.0557252890055 A 241.1364285405689,241.1364285405689 0 0 0 854.741949633857,684.0556268458989"/><line x1="857.6682505891195" y1="797.2813898317763" x2="854.7381467353985" y2="684.0557252890055"/><path class="line" d=" M 853.9572005118943,664.2715278180937 A 221.3388128195785,221.3388128195785 0 0 0 854.2216233946357,664.2648482839295"/><line x1="857.2378794382159" y1="797.2922655985072" x2="853.9572005118943" y2="664.2715278180937"/><path class="line" d=" M 851.7229445555281,636.8553852849383 A 193.882174981559,193.882174981559 0 0 0 853.0822533489084,636.8280184334202"/><line x1="854.3912664384325" y1="797.3510307304769" x2="851.7229445555281" y2="636.8553852849383"/><path class="line" d=" M 850.5299249381058,596.3540634219324 A 153.3674977407939,153.3674977407939 0 0 0 850.5644001440947,596.3536032029162"/><line x1="853.1907291874877" y1="797.3689561173348" x2="850.5299249381058" y2="596.3540634219324"/><path class="line" d=" M 849.3020731538546,530.9963446891737 A 88,88 0 0 0 849.6633527137307,530.9923099507193"/><line x1="851.7301673377964" y1="797.3852790663994" x2="849.3020731538546" y2="530.9963446891737"/></svg>