<?xml version="1.0" standalone="no"?><!DOCTYPE svg PUBLIC "-//W3C//DTD SVG 1.1//EN" 	"http://www.w3.org/Graphics/SVG/1.1/DTD/svg11.dtd"><svg width="1847" height="943" version="1.1"	xmlns="http://www.w3.org/2000/svg"><title>Krona (snapshot) - root</title><defs>	<style type="text/css">	text {font-size: 11px; font-family: sans-serif; dominant-baseline:central}	path {stroke-width:0.27499999999999997;}	path.wedge {stroke:none}	path.line {fill:none;stroke:black;}	line {stroke:black;stroke-width:0.27499999999999997;}	line.tick {stroke-width:0.5499999999999999;}	line.pattern {stroke-width:0.18333333333333332;}	circle {fill:none;stroke:black;stroke-width:0.27499999999999997;}	rect {stroke:black;stroke-width:0.27499999999999997;}	.highlight {stroke:black;stroke-width:1.375;}	.searchHighlight {fill:rgb(255, 255, 100);stroke:none;}	</style><pattern id="hiddenPattern" patternUnits="userSpaceOnUse" x="0" y="0" width="6.6" height="6.6"><line class="pattern" x1="0" y1="0" x2="3.3" y2="3.3"/><line class="pattern" x1="3.3" y1="6.6" x2="6.6" y2="3.3"/></pattern></defs><path class="wedge" fill="rgb(220,220,220)" d=" M 849.3020731538546,559.4963446891737 L 851.937977200386,848.6843320085945 A 377.2,377.2 0 0,1 848.5000000000001,848.7 L 848.5,559.5 A 88,88 0 0 0 849.3020731538546,559.4963446891737 Z "/><path class="wedge" fill="rgb(207,111,111)" d=" M 848.5,559.5 L 848.5,848.7 A 377.2,377.2 0 1,1 853.4865527684002,848.6670376524014 L 849.6633527137307,559.4923099507193 A 88,88 0 1 0 848.5,559.5 Z "/><path class="wedge" fill="rgb(207,111,111)" d=" M 850.4914750585622,621.9493031741943 L 853.4925029614005,848.6669589375247 A 377.2,377.2 0 0,1 853.4865527684002,848.6670376524014 L 850.4891015675406,621.9493345730167 A 150.46248302653225,150.46248302653225 0 0 0 850.4914750585622,621.9493031741943 Z "/><path class="wedge" fill="rgb(210,121,121)" d=" M 848.5,621.9624830265323 L 848.5,848.7 A 377.2,377.2 0 1,1 853.5772930759332,848.665827050942 L 850.5252972514802,621.9488516724293 A 150.46248302653225,150.46248302653225 0 1 0 848.5,621.9624830265323 Z "/><path class="wedge" fill="rgb(210,121,121)" d=" M 851.7048400116914,664.2664235419144 L 854.7702756788283,848.6478803372909 A 377.2,377.2 0 0,1 853.5772930759332,848.665827050942 L 851.0950871754774,664.275596399526 A 192.79306275030035,192.79306275030035 0 0 0 851.7048400116914,664.2664235419144 Z "/><path class="wedge" fill="rgb(213,130,130)" d=" M 848.5,664.2930627503004 L 848.5,848.7 A 377.2,377.2 0 1,1 857.4148265608875,848.594637813095 L 853.0565130343617,664.2392104207365 A 192.79306275030035,192.79306275030035 0 1 0 848.5,664.2930627503004 Z "/><path class="wedge" fill="rgb(213,130,130)" d=" M 854.0059374951655,694.7476521562367 L 857.8000229235188,848.5853346042802 A 377.2,377.2 0 0,1 857.4148265608875,848.594637813095 L 853.7778878319061,694.7531599798904 A 223.3155380643557,223.3155380643557 0 0 0 854.0059374951655,694.7476521562367 Z "/><path class="wedge" fill="rgb(216,140,140)" d=" M 848.5,694.8155380643557 L 848.5,848.7 A 377.2,377.2 0 1,1 1218.5530940813007,398.4209499182155 L 1067.5843208301837,428.23465697177704 A 223.3155380643557,223.3155380643557 0 1 0 848.5,694.8155380643557 Z "/><path class="wedge" fill="rgb(216,140,140)" d=" M 1088.9966719698346,418.1497365774972 L 1216.7480325977413,389.8101812470315 A 377.2,377.2 0 0,1 1218.5530940813007,398.4209499182155 L 1090.1755276352255,423.77328653623925 A 246.34305315112218,246.34305315112218 0 0 0 1088.9966719698346,418.1497365774972 Z "/><path class="wedge" fill="rgb(219,149,149)" d=" M 848.5,717.8430531511221 L 848.5,848.7 A 377.2,377.2 0 1,1 1213.1650735922765,375.0675153180239 L 1086.656700971103,408.52154639579317 A 246.34305315112218,246.34305315112218 0 1 0 848.5,717.8430531511221 Z "/><path class="wedge" fill="rgb(219,149,149)" d=" M 1102.1095514326787,397.0053170476099 L 1210.4098694889612,365.1934321573541 A 377.2,377.2 0 0,1 1213.1650735922765,375.0675153180239 L 1104.0402699227102,403.9246138457946 A 264.3241615253165,264.3241615253165 0 0 0 1102.1095514326787,397.0053170476099 Z "/><path class="wedge" fill="rgb(223,159,159)" d=" M 848.5,735.8241615253165 L 848.5,848.7 A 377.2,377.2 0 1,1 1084.0371737219136,176.87807312575484 L 1013.5534622271676,265.042699395525 A 264.3241615253165,264.3241615253165 0 1 0 848.5,735.8241615253165 Z "/><path class="wedge" fill="rgb(223,159,159)" d=" M 1021.2239526397406,252.71385062424352 L 1082.2281961196252,175.44093437513857 A 377.2,377.2 0 0,1 1084.0371737219136,176.87807312575484 L 1022.560777921805,253.77588887901675 A 278.7488887406839,278.7488887406839 0 0 0 1021.2239526397406,252.71385062424352 Z "/><path class="wedge" fill="rgb(226,168,168)" d=" M 848.5,750.2488887406839 L 848.5,848.7 A 377.2,377.2 0 1,1 1069.5045511350213,165.82561707331814 L 1011.8212434663861,245.6081798586775 A 278.7488887406839,278.7488887406839 0 1 0 848.5,750.2488887406839 Z "/><path class="wedge" fill="rgb(226,168,168)" d=" M 1018.17843537767,235.61253174723856 L 1068.762469380248,165.29045641503052 A 377.2,377.2 0 0,1 1069.5045511350213,165.82561707331814 L 1018.7500955040027,236.02479091889603 A 290.5747220783523,290.5747220783523 0 0 0 1018.17843537767,235.61253174723856 Z "/><path class="wedge" fill="rgb(229,178,178)" d=" M 848.5,762.0747220783524 L 848.5,848.7 A 377.2,377.2 0 1,1 1068.739522618663,165.27395166853705 L 1018.1607584188414,235.59981737256913 A 290.5747220783523,290.5747220783523 0 1 0 848.5,762.0747220783524 Z "/><path class="wedge" fill="rgb(229,178,178)" d=" M 1020.6933874251796,225.29617178493868 L 1064.6841847368773,162.39768964038518 A 377.2,377.2 0 0,1 1068.739522618663,165.27395166853705 L 1023.9235144017122,227.58715020388593 A 300.44448355845947,300.44448355845947 0 0 0 1020.6933874251796,225.29617178493868 Z "/><path class="wedge" fill="rgb(229,178,178)" d=" M 848.5,771.9444835584595 L 848.5,848.7 A 377.2,377.2 0 1,1 1064.343924792677,162.15999267780893 L 1020.422366154737,225.10684320284793 A 300.44448355845947,300.44448355845947 0 1 0 848.5,771.9444835584595 Z "/><path class="wedge" fill="rgb(229,178,178)" d=" M 581.6729039538438,626.9482550225127 L 522.5758540976799,661.3770421031547 A 377.2,377.2 0 0,1 1064.343924792677,162.15999267780893 L 1025.2067840039554,218.2499819132321 A 308.80553617765474,308.80553617765474 0 0 0 581.6729039538438,626.9482550225127 Z "/><path class="wedge" fill="rgb(229,178,178)" d=" M 848.5,780.3055361776547 L 848.5,848.7 A 377.2,377.2 0 0,1 690.5957160105701,814.0581368144472 L 719.2271551375807,751.9449870387161 A 308.80553617765474,308.80553617765474 0 0 0 848.5,780.3055361776547 Z "/><path class="wedge" fill="rgb(229,180,178)" d=" M 719.2271551375807,751.9449870387161 L 690.5957160105701,814.0581368144472 A 377.2,377.2 0 0,1 618.1885426858889,770.2247439196332 L 659.9489579434223,716.0595299990322 A 308.80553617765474,308.80553617765474 0 0 0 719.2271551375807,751.9449870387161 Z "/><path class="wedge" fill="rgb(229,180,178)" d=" M 659.9489579434223,716.0595299990322 L 618.1885426858889,770.2247439196332 A 377.2,377.2 0 0,1 564.8785817340384,720.1739453597913 L 616.3052382314763,675.0840165170816 A 308.80553617765474,308.80553617765474 0 0 0 659.9489579434223,716.0595299990322 Z "/><path class="wedge" fill="rgb(229,181,178)" d=" M 616.3052382314763,675.0840165170816 L 564.8785817340384,720.1739453597913 A 377.2,377.2 0 0,1 522.5758540976799,661.3770421031547 L 581.6729039538438,626.9482550225127 A 308.80553617765474,308.80553617765474 0 0 0 616.3052382314763,675.0840165170816 Z "/><path class="wedge" fill="rgb(229,192,178)" d=" M 1020.422366154737,225.10684320284793 L 1064.343924792677,162.15999267780893 A 377.2,377.2 0 0,1 1064.6841847368773,162.39768964038518 L 1020.6933874251796,225.29617178493868 A 300.44448355845947,300.44448355845947 0 0 0 1020.422366154737,225.10684320284793 Z "/><path class="wedge" fill="url(#hiddenPattern)" d=" M 1020.422366154737,225.10684320284793 L 1064.343924792677,162.15999267780893 A 377.2,377.2 0 0,1 1064.6841847368773,162.39768964038518 L 1020.6933874251796,225.29617178493868 A 300.44448355845947,300.44448355845947 0 0 0 1020.422366154737,225.10684320284793 Z "/><path class="wedge" fill="rgb(226,185,168)" d=" M 1018.1607584188414,235.59981737256913 L 1068.739522618663,165.27395166853705 A 377.2,377.2 0 0,1 1068.762469380248,165.29045641503052 L 1018.17843537767,235.61253174723856 A 290.5747220783523,290.5747220783523 0 0 0 1018.1607584188414,235.59981737256913 Z "/><path class="wedge" fill="url(#hiddenPattern)" d=" M 1018.1607584188414,235.59981737256913 L 1068.739522618663,165.27395166853705 A 377.2,377.2 0 0,1 1068.762469380248,165.29045641503052 L 1018.17843537767,235.61253174723856 A 290.5747220783523,290.5747220783523 0 0 0 1018.1607584188414,235.59981737256913 Z "/><path class="wedge" fill="rgb(223,177,159)" d=" M 1011.8212434663861,245.6081798586775 L 1069.5045511350213,165.82561707331814 A 377.2,377.2 0 0,1 1082.2281961196252,175.44093437513857 L 1021.2239526397406,252.71385062424352 A 278.7488887406839,278.7488887406839 0 0 0 1011.8212434663861,245.6081798586775 Z "/><path class="wedge" fill="url(#hiddenPattern)" d=" M 1011.8212434663861,245.6081798586775 L 1069.5045511350213,165.82561707331814 A 377.2,377.2 0 0,1 1082.2281961196252,175.44093437513857 L 1021.2239526397406,252.71385062424352 A 278.7488887406839,278.7488887406839 0 0 0 1011.8212434663861,245.6081798586775 Z "/><path class="wedge" fill="rgb(223,178,159)" d=" M 1013.5534622271676,265.042699395525 L 1084.0371737219136,176.87807312575484 A 377.2,377.2 0 0,1 1210.4098694889612,365.1934321573541 L 1102.1095514326787,397.0053170476099 A 264.3241615253165,264.3241615253165 0 0 0 1013.5534622271676,265.042699395525 Z "/><path class="wedge" fill="rgb(223,178,159)" d=" M 1115.9253795119027,392.8577126026909 L 1210.3771490268803,365.08210201203406 A 377.2,377.2 0 0,1 1210.4098694889612,365.1934321573541 L 1115.9495597675873,392.9399850159765 A 278.7488887406839,278.7488887406839 0 0 0 1115.9253795119027,392.8577126026909 Z "/><path class="wedge" fill="rgb(226,185,168)" d=" M 1022.560777921805,253.77588887901675 L 1084.0371737219136,176.87807312575484 A 377.2,377.2 0 0,1 1210.2159862849771,364.5355887882037 L 1115.8062810622423,392.4538420994439 A 278.7488887406839,278.7488887406839 0 0 0 1022.560777921805,253.77588887901675 Z "/><path class="wedge" fill="rgb(226,185,168)" d=" M 1127.0724562461796,388.84979896042574 L 1210.119654127124,364.21036513726403 A 377.2,377.2 0 0,1 1210.2159862849771,364.5355887882037 L 1127.1466653925088,389.1003338808529 A 290.5747220783523,290.5747220783523 0 0 0 1127.0724562461796,388.84979896042574 Z "/><path class="wedge" fill="rgb(229,193,178)" d=" M 1029.9452513079682,244.53901240807946 L 1084.0371737219136,176.87807312575484 A 377.2,377.2 0 0,1 1210.113306232646,364.1889718831537 L 1127.0675661675111,388.83331874073474 A 290.5747220783523,290.5747220783523 0 0 0 1029.9452513079682,244.53901240807946 Z "/><path class="wedge" fill="rgb(229,193,178)" d=" M 1134.5190115715598,379.5216725508806 L 1207.5892063884412,356.0236740482301 A 377.2,377.2 0 0,1 1210.113306232646,364.1889718831537 L 1136.5294884383202,386.0254336620011 A 300.44448355845947,300.44448355845947 0 0 0 1134.5190115715598,379.5216725508806 Z "/><path class="wedge" fill="rgb(229,193,178)" d=" M 1036.108283450953,236.82997702881548 L 1084.0371737219136,176.87807312575484 A 377.2,377.2 0 0,1 1167.9970204747233,270.9968980095962 L 1102.9833438891696,311.79678968882286 A 300.44448355845947,300.44448355845947 0 0 0 1036.108283450953,236.82997702881548 Z "/><path class="wedge" fill="rgb(229,193,178)" d=" M 1060.8243264367798,247.26967293174494 L 1107.8500651681275,197.60698494249982 A 377.2,377.2 0 0,1 1167.9970204747233,270.9968980095962 L 1110.065346539926,307.35241803968813 A 308.80553617765474,308.80553617765474 0 0 0 1060.8243264367798,247.26967293174494 Z "/><path class="wedge" fill="rgb(229,193,178)" d=" M 1041.329223809557,230.29935817047965 L 1084.0371737219136,176.87807312575484 A 377.2,377.2 0 0,1 1098.4215660852458,188.97734461551914 L 1053.105416800937,240.20477179655515 A 308.80553617765474,308.80553617765474 0 0 0 1041.329223809557,230.29935817047965 Z "/><path class="wedge" fill="rgb(229,193,178)" d=" M 1053.105416800937,240.20477179655515 L 1098.4215660852458,188.97734461551914 A 377.2,377.2 0 0,1 1107.8500651681275,197.60698494249982 L 1060.8243264367798,247.26967293174494 A 308.80553617765474,308.80553617765474 0 0 0 1053.105416800937,240.20477179655515 Z "/><path class="wedge" fill="url(#hiddenPattern)" d=" M 1053.105416800937,240.20477179655515 L 1098.4215660852458,188.97734461551914 A 377.2,377.2 0 0,1 1107.8500651681275,197.60698494249982 L 1060.8243264367798,247.26967293174494 A 308.80553617765474,308.80553617765474 0 0 0 1053.105416800937,240.20477179655515 Z "/><path class="wedge" fill="rgb(229,194,178)" d=" M 1102.9833438891696,311.79678968882286 L 1167.9970204747233,270.9968980095962 A 377.2,377.2 0 0,1 1206.5147598832991,352.73438331864 L 1133.6632015891932,376.90171164280713 A 300.44448355845947,300.44448355845947 0 0 0 1102.9833438891696,311.79678968882286 Z "/><path class="wedge" fill="rgb(229,194,178)" d=" M 1117.0599103521542,319.0649852376046 L 1176.540745119785,285.30357269470437 A 377.2,377.2 0 0,1 1206.5147598832991,352.73438331864 L 1141.5989922727372,374.26914120159813 A 308.80553617765474,308.80553617765474 0 0 0 1117.0599103521542,319.0649852376046 Z "/><path class="wedge" fill="rgb(229,194,178)" d=" M 1110.065346539926,307.35241803968813 L 1167.9970204747233,270.9968980095962 A 377.2,377.2 0 0,1 1176.4952050235763,285.22336302815074 L 1117.0226276537787,318.99931930683385 A 308.80553617765474,308.80553617765474 0 0 0 1110.065346539926,307.35241803968813 Z "/><path class="wedge" fill="rgb(229,194,178)" d=" M 1120.0621666825468,309.95578988612965 L 1172.6776979234346,278.6563841630675 A 377.2,377.2 0 0,1 1176.4952050235763,285.22336302815074 L 1123.2600748239186,315.456917880387 A 315.97870528665953,315.97870528665953 0 0 0 1120.0621666825468,309.95578988612965 Z "/><path class="wedge" fill="rgb(229,194,178)" d=" M 1116.1411847098314,303.53947356074536 L 1167.9970204747233,270.9968980095962 A 377.2,377.2 0 0,1 1172.6776979234346,278.6563841630675 L 1120.0621666825468,309.95578988612965 A 315.97870528665953,315.97870528665953 0 0 0 1116.1411847098314,303.53947356074536 Z "/><path class="wedge" fill="url(#hiddenPattern)" d=" M 1116.1411847098314,303.53947356074536 L 1167.9970204747233,270.9968980095962 A 377.2,377.2 0 0,1 1172.6776979234346,278.6563841630675 L 1120.0621666825468,309.95578988612965 A 315.97870528665953,315.97870528665953 0 0 0 1116.1411847098314,303.53947356074536 Z "/><path class="wedge" fill="rgb(229,194,178)" d=" M 1117.0226276537787,318.99931930683385 L 1176.4952050235763,285.22336302815074 A 377.2,377.2 0 0,1 1176.540745119785,285.30357269470437 L 1117.0599103521542,319.0649852376046 A 308.80553617765474,308.80553617765474 0 0 0 1117.0226276537787,318.99931930683385 Z "/><path class="wedge" fill="url(#hiddenPattern)" d=" M 1117.0226276537787,318.99931930683385 L 1176.4952050235763,285.22336302815074 A 377.2,377.2 0 0,1 1176.540745119785,285.30357269470437 L 1117.0599103521542,319.0649852376046 A 308.80553617765474,308.80553617765474 0 0 0 1117.0226276537787,318.99931930683385 Z "/><path class="wedge" fill="rgb(229,195,178)" d=" M 1133.6632015891932,376.90171164280713 L 1206.5147598832991,352.73438331864 A 377.2,377.2 0 0,1 1207.5892063884412,356.0236740482301 L 1134.5190115715598,379.5216725508806 A 300.44448355845947,300.44448355845947 0 0 0 1133.6632015891932,376.90171164280713 Z "/><path class="wedge" fill="url(#hiddenPattern)" d=" M 1133.6632015891932,376.90171164280713 L 1206.5147598832991,352.73438331864 A 377.2,377.2 0 0,1 1207.5892063884412,356.0236740482301 L 1134.5190115715598,379.5216725508806 A 300.44448355845947,300.44448355845947 0 0 0 1133.6632015891932,376.90171164280713 Z "/><path class="wedge" fill="rgb(226,188,168)" d=" M 1127.0675661675111,388.83331874073474 L 1210.113306232646,364.1889718831537 A 377.2,377.2 0 0,1 1210.119654127124,364.21036513726403 L 1127.0724562461796,388.84979896042574 A 290.5747220783523,290.5747220783523 0 0 0 1127.0675661675111,388.83331874073474 Z "/><path class="wedge" fill="url(#hiddenPattern)" d=" M 1127.0675661675111,388.83331874073474 L 1210.113306232646,364.1889718831537 A 377.2,377.2 0 0,1 1210.119654127124,364.21036513726403 L 1127.0724562461796,388.84979896042574 A 290.5747220783523,290.5747220783523 0 0 0 1127.0675661675111,388.83331874073474 Z "/><path class="wedge" fill="rgb(223,180,159)" d=" M 1115.8062810622423,392.4538420994439 L 1210.2159862849771,364.5355887882037 A 377.2,377.2 0 0,1 1210.3771490268803,365.08210201203406 L 1115.9253795119027,392.8577126026909 A 278.7488887406839,278.7488887406839 0 0 0 1115.8062810622423,392.4538420994439 Z "/><path class="wedge" fill="url(#hiddenPattern)" d=" M 1115.8062810622423,392.4538420994439 L 1210.2159862849771,364.5355887882037 A 377.2,377.2 0 0,1 1210.3771490268803,365.08210201203406 L 1115.9253795119027,392.8577126026909 A 278.7488887406839,278.7488887406839 0 0 0 1115.8062810622423,392.4538420994439 Z "/><path class="wedge" fill="rgb(216,166,140)" d=" M 1086.656700971103,408.52154639579317 L 1213.1650735922765,375.0675153180239 A 377.2,377.2 0 0,1 1216.7480325977413,389.8101812470315 L 1088.9966719698346,418.1497365774972 A 246.34305315112218,246.34305315112218 0 0 0 1086.656700971103,408.52154639579317 Z "/><path class="wedge" fill="url(#hiddenPattern)" d=" M 1086.656700971103,408.52154639579317 L 1213.1650735922765,375.0675153180239 A 377.2,377.2 0 0,1 1216.7480325977413,389.8101812470315 L 1088.9966719698346,418.1497365774972 A 246.34305315112218,246.34305315112218 0 0 0 1086.656700971103,408.52154639579317 Z "/><path class="wedge" fill="rgb(216,167,140)" d=" M 1067.5843208301837,428.23465697177704 L 1218.5530940813007,398.4209499182155 A 377.2,377.2 0 0,1 858.250645704492,848.573951511299 L 854.2727218769181,694.7409129687129 A 223.3155380643557,223.3155380643557 0 0 0 1067.5843208301837,428.23465697177704 Z "/><path class="wedge" fill="rgb(216,167,140)" d=" M 854.872840976801,717.7606073526601 L 858.2580816089612,848.5737591550396 A 377.2,377.2 0 0,1 858.250645704492,848.573951511299 L 854.8679847111331,717.7607329773373 A 246.34305315112218,246.34305315112218 0 0 0 854.872840976801,717.7606073526601 Z "/><path class="wedge" fill="rgb(219,174,149)" d=" M 1090.1755276352255,423.77328653623925 L 1218.5530940813007,398.4209499182155 A 377.2,377.2 0 0,1 858.2640303298045,848.5736051644542 L 854.8767259875509,717.7605067839671 A 246.34305315112218,246.34305315112218 0 0 0 1090.1755276352255,423.77328653623925 Z "/><path class="wedge" fill="rgb(219,174,149)" d=" M 855.5787413438139,735.7293582989009 L 858.6016162104836,848.5647124167629 A 377.2,377.2 0 0,1 858.2640303298045,848.5736051644542 L 855.3421769088901,735.735589921587 A 264.3241615253165,264.3241615253165 0 0 0 855.5787413438139,735.7293582989009 Z "/><path class="wedge" fill="rgb(223,181,159)" d=" M 1107.8159433003418,420.2896112461975 L 1218.5530940813007,398.4209499182155 A 377.2,377.2 0 0,1 858.8127891816779,848.5589958869755 L 855.7267215096351,735.7253524215339 A 264.3241615253165,264.3241615253165 0 0 0 1107.8159433003418,420.2896112461975 Z "/><path class="wedge" fill="rgb(223,181,159)" d=" M 856.1276928035946,750.1445069917227 L 858.821711912518,848.5587517392946 A 377.2,377.2 0 0,1 858.8127891816779,848.5589958869755 L 856.1210989507149,750.1446874156218 A 278.7488887406839,278.7488887406839 0 0 0 856.1276928035946,750.1445069917227 Z "/><path class="wedge" fill="rgb(226,189,168)" d=" M 1121.9673614798896,417.4949522785731 L 1218.5530940813007,398.4209499182155 A 377.2,377.2 0 0,1 858.8291475171361,848.5585481216003 L 856.1331876777314,750.1443565192784 A 278.7488887406839,278.7488887406839 0 0 0 1121.9673614798896,417.4949522785731 Z "/><path class="wedge" fill="rgb(226,189,168)" d=" M 857.73657505763,761.9278822567084 L 860.4901555332077,848.509384724425 A 377.2,377.2 0 0,1 858.8291475171361,848.5585481216003 L 856.4570232478742,761.9657551105543 A 290.5747220783523,290.5747220783523 0 0 0 857.73657505763,761.9278822567084 Z "/><path class="wedge" fill="rgb(229,196,178)" d=" M 1133.5691276959394,415.2038052299456 L 1218.5530940813007,398.4209499182155 A 377.2,377.2 0 0,1 860.5466586099518,848.507583499769 L 857.7801020083763,761.9264946894925 A 290.5747220783523,290.5747220783523 0 0 0 1133.5691276959394,415.2038052299456 Z "/><path class="wedge" fill="rgb(229,196,178)" d=" M 862.111649414314,771.6359870141054 L 865.5890611745256,848.3126908533911 A 377.2,377.2 0 0,1 860.5466586099518,848.507583499769 L 858.095313161909,771.7912214268581 A 300.44448355845947,300.44448355845947 0 0 0 862.111649414314,771.6359870141054 Z "/><path class="wedge" fill="rgb(229,196,178)" d=" M 1143.2518842536226,413.29162921324354 L 1218.5530940813007,398.4209499182155 A 377.2,377.2 0 0,1 866.0824484689954,848.2899912495488 L 862.5046385205741,771.6179064977921 A 300.44448355845947,300.44448355845947 0 0 0 1143.2518842536226,413.29162921324354 Z "/><path class="wedge" fill="rgb(229,196,178)" d=" M 1151.4545178472329,411.67175173950386 L 1218.5530940813007,398.4209499182155 A 377.2,377.2 0 0,1 866.0824484689954,848.2899912495488 L 862.8943728175612,779.9698708223509 A 308.80553617765474,308.80553617765474 0 0 0 1151.4545178472329,411.67175173950386 Z "/><path class="wedge" fill="rgb(229,203,178)" d=" M 862.5046385205741,771.6179064977921 L 866.0824484689954,848.2899912495488 A 377.2,377.2 0 0,1 865.5890611745256,848.3126908533911 L 862.111649414314,771.6359870141054 A 300.44448355845947,300.44448355845947 0 0 0 862.5046385205741,771.6179064977921 Z "/><path class="wedge" fill="url(#hiddenPattern)" d=" M 862.5046385205741,771.6179064977921 L 866.0824484689954,848.2899912495488 A 377.2,377.2 0 0,1 865.5890611745256,848.3126908533911 L 862.111649414314,771.6359870141054 A 300.44448355845947,300.44448355845947 0 0 0 862.5046385205741,771.6179064977921 Z "/><path class="wedge" fill="rgb(226,196,168)" d=" M 857.7801020083763,761.9264946894925 L 860.5466586099518,848.507583499769 A 377.2,377.2 0 0,1 860.4901555332077,848.509384724425 L 857.73657505763,761.9278822567084 A 290.5747220783523,290.5747220783523 0 0 0 857.7801020083763,761.9264946894925 Z "/><path class="wedge" fill="url(#hiddenPattern)" d=" M 857.7801020083763,761.9264946894925 L 860.5466586099518,848.507583499769 A 377.2,377.2 0 0,1 860.4901555332077,848.509384724425 L 857.73657505763,761.9278822567084 A 290.5747220783523,290.5747220783523 0 0 0 857.7801020083763,761.9264946894925 Z "/><path class="wedge" fill="rgb(223,190,159)" d=" M 856.1331876777314,750.1443565192784 L 858.8291475171361,848.5585481216003 A 377.2,377.2 0 0,1 858.821711912518,848.5587517392946 L 856.1276928035946,750.1445069917227 A 278.7488887406839,278.7488887406839 0 0 0 856.1331876777314,750.1443565192784 Z "/><path class="wedge" fill="url(#hiddenPattern)" d=" M 856.1331876777314,750.1443565192784 L 858.8291475171361,848.5585481216003 A 377.2,377.2 0 0,1 858.821711912518,848.5587517392946 L 856.1276928035946,750.1445069917227 A 278.7488887406839,278.7488887406839 0 0 0 856.1331876777314,750.1443565192784 Z "/><path class="wedge" fill="rgb(219,183,149)" d=" M 855.7267215096351,735.7253524215339 L 858.8127891816779,848.5589958869755 A 377.2,377.2 0 0,1 858.6016162104836,848.5647124167629 L 855.5787413438139,735.7293582989009 A 264.3241615253165,264.3241615253165 0 0 0 855.7267215096351,735.7253524215339 Z "/><path class="wedge" fill="url(#hiddenPattern)" d=" M 855.7267215096351,735.7253524215339 L 858.8127891816779,848.5589958869755 A 377.2,377.2 0 0,1 858.6016162104836,848.5647124167629 L 855.5787413438139,735.7293582989009 A 264.3241615253165,264.3241615253165 0 0 0 855.7267215096351,735.7253524215339 Z "/><path class="wedge" fill="rgb(216,177,140)" d=" M 854.8767259875509,717.7605067839671 L 858.2640303298045,848.5736051644542 A 377.2,377.2 0 0,1 858.2580816089612,848.5737591550396 L 854.872840976801,717.7606073526601 A 246.34305315112218,246.34305315112218 0 0 0 854.8767259875509,717.7605067839671 Z "/><path class="wedge" fill="url(#hiddenPattern)" d=" M 854.8767259875509,717.7605067839671 L 858.2640303298045,848.5736051644542 A 377.2,377.2 0 0,1 858.2580816089612,848.5737591550396 L 854.872840976801,717.7606073526601 A 246.34305315112218,246.34305315112218 0 0 0 854.8767259875509,717.7605067839671 Z "/><path class="wedge" fill="rgb(213,171,130)" d=" M 854.2727218769181,694.7409129687129 L 858.250645704492,848.573951511299 A 377.2,377.2 0 0,1 857.8000229235188,848.5853346042802 L 854.0059374951655,694.7476521562367 A 223.3155380643557,223.3155380643557 0 0 0 854.2727218769181,694.7409129687129 Z "/><path class="wedge" fill="url(#hiddenPattern)" d=" M 854.2727218769181,694.7409129687129 L 858.250645704492,848.573951511299 A 377.2,377.2 0 0,1 857.8000229235188,848.5853346042802 L 854.0059374951655,694.7476521562367 A 223.3155380643557,223.3155380643557 0 0 0 854.2727218769181,694.7409129687129 Z "/><path class="wedge" fill="rgb(210,165,121)" d=" M 853.0565130343617,664.2392104207365 L 857.4148265608875,848.594637813095 A 377.2,377.2 0 0,1 854.7702756788283,848.6478803372909 L 851.7048400116914,664.2664235419144 A 192.79306275030035,192.79306275030035 0 0 0 853.0565130343617,664.2392104207365 Z "/><path class="wedge" fill="url(#hiddenPattern)" d=" M 853.0565130343617,664.2392104207365 L 857.4148265608875,848.594637813095 A 377.2,377.2 0 0,1 854.7702756788283,848.6478803372909 L 851.7048400116914,664.2664235419144 A 192.79306275030035,192.79306275030035 0 0 0 853.0565130343617,664.2392104207365 Z "/><path class="wedge" fill="rgb(207,159,111)" d=" M 850.5252972514802,621.9488516724293 L 853.5772930759332,848.665827050942 A 377.2,377.2 0 0,1 853.4925029614005,848.6669589375247 L 850.4914750585622,621.9493031741943 A 150.46248302653225,150.46248302653225 0 0 0 850.5252972514802,621.9488516724293 Z "/><path class="wedge" fill="url(#hiddenPattern)" d=" M 850.5252972514802,621.9488516724293 L 853.5772930759332,848.665827050942 A 377.2,377.2 0 0,1 853.4925029614005,848.6669589375247 L 850.4914750585622,621.9493031741943 A 150.46248302653225,150.46248302653225 0 0 0 850.5252972514802,621.9488516724293 Z "/><path class="wedge" fill="rgb(101,204,204)" d=" M 849.6633527137307,559.4923099507193 L 853.4865527684002,848.6670376524014 A 377.2,377.2 0 0,1 851.937977200386,848.6843320085945 L 849.3020731538546,559.4963446891737 A 88,88 0 0 0 849.6633527137307,559.4923099507193 Z "/><path class="wedge" fill="url(#hiddenPattern)" d=" M 849.6633527137307,559.4923099507193 L 853.4865527684002,848.6670376524014 A 377.2,377.2 0 0,1 851.937977200386,848.6843320085945 L 849.3020731538546,559.4963446891737 A 88,88 0 0 0 849.6633527137307,559.4923099507193 Z "/><rect fill="rgb(101,204,204)" x="1810.855" y="877.5216666666668" width="22" height="22"/><rect fill="url(#hiddenPattern)" style="stroke:none" x="1810.855" y="877.5216666666668" width="22" height="22"/><path class="line" d="M 852.7122738600943,848.6764795807495 L 853.4143195034434,911.539226177541 A 440.0666666666666,440.0666666666666 0 0,0 989.0403879376549,888.5216666666668 L 1304.2833333333333,888.5216666666668 L 1721.1774283854168,888.5216666666668"/><text x="1803.5216666666668" y="888.5216666666668" style="font-color:black;font-weight:normal" text-anchor="end">Viruses&#160;&#160;&#160;0.07%</text><circle cx="848.5" cy="471.5" r="88"/><circle cx="848.5" cy="471.5" r="377.2"/><text x="848.5" y="471.5" text-anchor="middle" style="font-color:black;font-weight:bold" transform="rotate(360,848.5,471.5)">root</text><rect fill="rgb(220,220,220)" x="1810.855" y="906.855" width="22" height="22"/><path class="line" d="M 850.219006451146,848.6960829818106 L 850.5771327951347,927.2786002696878 A 455.7833333333333,455.7833333333333 0 0,0 940.7261401092142,917.855 L 1293.2833333333333,917.855 L 1710.5856315104168,917.855"/><text x="1803.5216666666668" y="917.855" style="font-color:black;font-weight:normal" text-anchor="end">[other root]&#160;&#160;&#160;0.1%</text><path class="line" d=" M 849.6633527137307,559.4923099507193 A 88,88 0 1 0 848.5,559.5"/><line x1="853.4865527684002" y1="848.6670376524014" x2="849.6633527137307" y2="559.4923099507193"/><text x="848.5" y="352.2687584867339" text-anchor="middle" style="font-color:black;font-weight:normal" transform="rotate(359.6212662372309,848.5,471.5)">cellular organisms</text><path class="line" d=" M 850.5252972514802,621.9488516724293 A 150.46248302653225,150.46248302653225 0 1 0 848.5,621.9624830265323"/><line x1="853.5772930759332" y1="848.665827050942" x2="850.5252972514802" y2="621.9488516724293"/><text x="848.5" y="308.3383430563373" text-anchor="middle" style="font-color:black;font-weight:normal" transform="rotate(359.6143740058678,848.5,471.5)">Bacteria</text><path class="line" d=" M 853.0565130343617,664.2392104207365 A 192.79306275030035,192.79306275030035 0 1 0 848.5,664.2930627503004"/><line x1="857.4148265608875" y1="848.594637813095" x2="853.0565130343617" y2="664.2392104207365"/><text x="848.5" y="269.550194655483" text-anchor="middle" style="font-color:black;font-weight:normal" transform="rotate(359.3228665154309,848.5,471.5)">Terrabacteria group</text><path class="line" d=" M 1067.5843208301837,428.23465697177704 A 223.3155380643557,223.3155380643557 0 1 0 848.5,694.8155380643557"/><line x1="1218.5530940813007" y1="398.4209499182155" x2="1067.5843208301837" y2="428.23465697177704"/><text x="848.5" y="236.67070439226106" text-anchor="middle" style="font-color:black;font-weight:normal" transform="rotate(309.4144114172512,848.5,471.5)">Firmicutes</text><path class="line" d=" M 1086.656700971103,408.52154639579317 A 246.34305315112218,246.34305315112218 0 1 0 848.5,717.8430531511221"/><line x1="1213.1650735922765" y1="375.0675153180239" x2="1086.656700971103" y2="408.52154639579317"/><text x="848.5" y="216.16639266178066" text-anchor="middle" style="font-color:black;font-weight:normal" transform="rotate(307.59384545081343,848.5,471.5)">Bacilli</text><path class="line" d=" M 1013.5534622271676,265.042699395525 A 264.3241615253165,264.3241615253165 0 1 0 848.5,735.8241615253165"/><line x1="1084.0371737219136" y1="176.87807312575484" x2="1013.5534622271676" y2="265.042699395525"/><text x="848.5" y="199.96347486699977" text-anchor="middle" style="font-color:black;font-weight:normal" transform="rotate(289.3203933467998,848.5,471.5)">Lactobacillales</text><path class="line" d=" M 1011.8212434663861,245.6081798586775 A 278.7488887406839,278.7488887406839 0 1 0 848.5,750.2488887406839"/><line x1="1069.5045511350213" y1="165.82561707331814" x2="1011.8212434663861" y2="245.6081798586775"/><path class="line" d=" M 1018.1607584188414,235.59981737256913 A 290.5747220783523,290.5747220783523 0 1 0 848.5,762.0747220783524"/><line x1="1068.739522618663" y1="165.27395166853705" x2="1018.1607584188414" y2="235.59981737256913"/><path class="line" d=" M 1020.422366154737,225.10684320284793 A 300.44448355845947,300.44448355845947 0 1 0 848.5,771.9444835584595"/><line x1="1064.343924792677" y1="162.15999267780893" x2="1020.422366154737" y2="225.10684320284793"/><text x="509.6777582207703" y="471.5" text-anchor="end" style="font-color:black;font-weight:normal" transform="rotate(17.452824622214056,848.5,471.5)">Enterococcus faecalis&#160;&#160;&#160;60%</text><path class="line" d=" M 719.2271551375807,751.9449870387161 A 308.80553617765474,308.80553617765474 0 0 0 848.5,780.3055361776547"/><line x1="690.5957160105701" y1="814.0581368144472" x2="719.2271551375807" y2="751.9449870387161"/><text x="505.49723191117266" y="471.5" text-anchor="end" style="font-color:black;font-weight:normal" transform="rotate(-77.62618495535114,848.5,471.5)">Enterococcus faecalis V583&#160;&#160;&#160;7%</text><path class="line" d=" M 659.9489579434223,716.0595299990322 A 308.80553617765474,308.80553617765474 0 0 0 719.2271551375807,751.9449870387161"/><line x1="618.1885426858889" y1="770.2247439196332" x2="659.9489579434223" y2="716.0595299990322"/><text x="505.49723191117266" y="471.5" text-anchor="end" style="font-color:black;font-weight:normal" transform="rotate(-58.810393334245624,848.5,471.5)">Enterococcus faecalis str. Symbioflor 1&#160;&#160;&#160;4%</text><path class="line" d=" M 616.3052382314763,675.0840165170816 A 308.80553617765474,308.80553617765474 0 0 0 659.9489579434223,716.0595299990322"/><line x1="564.8785817340384" y1="720.1739453597913" x2="616.3052382314763" y2="675.0840165170816"/><text x="505.49723191117266" y="471.5" text-anchor="end" style="font-color:black;font-weight:normal" transform="rotate(-46.806047085615575,848.5,471.5)">Enterococcus faecalis D32&#160;&#160;&#160;3%</text><path class="line" d=" M 581.6729039538438,626.9482550225127 A 308.80553617765474,308.80553617765474 0 0 0 616.3052382314763,675.0840165170816"/><line x1="522.5758540976799" y1="661.3770421031547" x2="581.6729039538438" y2="626.9482550225127"/><text x="505.49723191117266" y="471.5" text-anchor="end" style="font-color:black;font-weight:normal" transform="rotate(-35.73395986938655,848.5,471.5)">Enterococcus faecalis OG1RF&#160;&#160;&#160;3%</text><path class="line" d=" M 1020.6933874251796,225.29617178493868 A 300.44448355845947,300.44448355845947 0 0 0 1020.422366154737,225.10684320284793"/><line x1="1064.6841847368773" y1="162.39768964038518" x2="1020.6933874251796" y2="225.29617178493868"/><path class="line" d=" M 1018.17843537767,235.61253174723856 A 290.5747220783523,290.5747220783523 0 0 0 1018.1607584188414,235.59981737256913"/><line x1="1068.762469380248" y1="165.29045641503052" x2="1018.17843537767" y2="235.61253174723856"/><line x1="1217.45" y1="471.5" x2="1233.95" y2="471.5" class="tick" transform="rotate(307.07850992217675,848.5,471.5)"/><text x="1236.7" y="471.5" text-anchor="start" style="font-color:black;font-weight:normal" transform="rotate(307.07850992217675,848.5,471.5)">5 more</text><path class="line" d=" M 1021.2239526397406,252.71385062424352 A 278.7488887406839,278.7488887406839 0 0 0 1011.8212434663861,245.6081798586775"/><line x1="1082.2281961196252" y1="175.44093437513857" x2="1021.2239526397406" y2="252.71385062424352"/><path class="line" d=" M 1102.1095514326787,397.0053170476099 A 264.3241615253165,264.3241615253165 0 0 0 1013.5534622271676,265.042699395525"/><line x1="1210.4098694889612" y1="365.1934321573541" x2="1102.1095514326787" y2="397.0053170476099"/><text x="848.5" y="199.96347486699977" text-anchor="middle" style="font-color:black;font-weight:normal" transform="rotate(416.13564262838827,848.5,471.5)">Bacillales</text><path class="line" d=" M 1115.8062810622423,392.4538420994439 A 278.7488887406839,278.7488887406839 0 0 0 1022.560777921805,253.77588887901675"/><line x1="1210.2159862849771" y1="364.5355887882037" x2="1115.8062810622423" y2="392.4538420994439"/><path class="line" d=" M 1127.0675661675111,388.83331874073474 A 290.5747220783523,290.5747220783523 0 0 0 1029.9452513079682,244.53901240807946"/><line x1="1210.113306232646" y1="364.1889718831537" x2="1127.0675661675111" y2="388.83331874073474"/><path class="line" d=" M 1102.9833438891696,311.79678968882286 A 300.44448355845947,300.44448355845947 0 0 0 1036.108283450953,236.82997702881548"/><line x1="1167.9970204747233" y1="270.9968980095962" x2="1102.9833438891696" y2="311.79678968882286"/><text x="1187.3222417792297" y="471.5" text-anchor="start" style="font-color:black;font-weight:normal" transform="rotate(318.2650533739921,848.5,471.5)">5%&#160;&#160;&#160;Staphylococcus epidermidis</text><path class="line" d=" M 1053.105416800937,240.20477179655515 A 308.80553617765474,308.80553617765474 0 0 0 1041.329223809557,230.29935817047965"/><line x1="1098.4215660852458" y1="188.97734461551914" x2="1053.105416800937" y2="240.20477179655515"/><text x="1191.5027680888275" y="471.5" text-anchor="start" style="font-color:black;font-weight:normal" transform="rotate(310.0684954723438,848.5,471.5)">0.8%&#160;&#160;&#160;Staphylococcus epidermidis RP62A</text><line x1="1217.45" y1="471.5" x2="1233.95" y2="471.5" class="tick" transform="rotate(312.46699198668256,848.5,471.5)"/><text x="1236.7" y="471.5" text-anchor="start" style="font-color:black;font-weight:normal" transform="rotate(312.46699198668256,848.5,471.5)">1 more</text><path class="line" d=" M 1060.8243264367798,247.26967293174494 A 308.80553617765474,308.80553617765474 0 0 0 1053.105416800937,240.20477179655515"/><line x1="1107.8500651681275" y1="197.60698494249982" x2="1060.8243264367798" y2="247.26967293174494"/><path class="line" d=" M 1133.6632015891932,376.90171164280713 A 300.44448355845947,300.44448355845947 0 0 0 1102.9833438891696,311.79678968882286"/><line x1="1206.5147598832991" y1="352.73438331864" x2="1133.6632015891932" y2="376.90171164280713"/><text x="1187.3222417792297" y="471.5" text-anchor="start" style="font-color:black;font-weight:normal" transform="rotate(334.76844487909716,848.5,471.5)">4%&#160;&#160;&#160;Staphylococcus aureus</text><path class="line" d=" M 1117.0226276537787,318.99931930683385 A 308.80553617765474,308.80553617765474 0 0 0 1110.065346539926,307.35241803968813"/><line x1="1176.4952050235763" y1="285.22336302815074" x2="1117.0226276537787" y2="318.99931930683385"/><path class="line" d=" M 1120.0621666825468,309.95578988612965 A 315.97870528665953,315.97870528665953 0 0 0 1116.1411847098314,303.53947356074536"/><line x1="1172.6776979234346" y1="278.6563841630675" x2="1120.0621666825468" y2="309.95578988612965"/><path class="line" d=" M 1117.0599103521542,319.0649852376046 A 308.80553617765474,308.80553617765474 0 0 0 1117.0226276537787,318.99931930683385"/><line x1="1176.540745119785" y1="285.30357269470437" x2="1117.0599103521542" y2="319.0649852376046"/><path class="line" d=" M 1134.5190115715598,379.5216725508806 A 300.44448355845947,300.44448355845947 0 0 0 1133.6632015891932,376.90171164280713"/><line x1="1207.5892063884412" y1="356.0236740482301" x2="1134.5190115715598" y2="379.5216725508806"/><path class="line" d=" M 1127.0724562461796,388.84979896042574 A 290.5747220783523,290.5747220783523 0 0 0 1127.0675661675111,388.83331874073474"/><line x1="1210.119654127124" y1="364.21036513726403" x2="1127.0724562461796" y2="388.84979896042574"/><path class="line" d=" M 1115.9253795119027,392.8577126026909 A 278.7488887406839,278.7488887406839 0 0 0 1115.8062810622423,392.4538420994439"/><line x1="1210.3771490268803" y1="365.08210201203406" x2="1115.9253795119027" y2="392.8577126026909"/><line x1="1217.45" y1="471.5" x2="1233.95" y2="471.5" class="tick" transform="rotate(346.3400493880477,848.5,471.5)"/><text x="1236.7" y="471.5" text-anchor="start" style="font-color:black;font-weight:normal" transform="rotate(346.3400493880477,848.5,471.5)">4 more</text><path class="line" d=" M 1088.9966719698346,418.1497365774972 A 246.34305315112218,246.34305315112218 0 0 0 1086.656700971103,408.52154639579317"/><line x1="1216.7480325977413" y1="389.8101812470315" x2="1088.9966719698346" y2="418.1497365774972"/><path class="line" d=" M 854.2727218769181,694.7409129687129 A 223.3155380643557,223.3155380643557 0 0 0 1067.5843208301837,428.23465697177704"/><line x1="858.250645704492" y1="848.573951511299" x2="854.2727218769181" y2="694.7409129687129"/><text x="848.5" y="706.3292956077389" text-anchor="middle" style="font-color:black;font-weight:normal" transform="rotate(308.6737790142226,848.5,471.5)">Actinobacteria</text><path class="line" d=" M 854.8767259875509,717.7605067839671 A 246.34305315112218,246.34305315112218 0 0 0 1090.1755276352255,423.77328653623925"/><line x1="858.2640303298045" y1="848.5736051644542" x2="854.8767259875509" y2="717.7605067839671"/><text x="848.5" y="726.8336073382193" text-anchor="middle" style="font-color:black;font-weight:normal" transform="rotate(308.67276212762806,848.5,471.5)">Actinobacteria</text><path class="line" d=" M 855.7267215096351,735.7253524215339 A 264.3241615253165,264.3241615253165 0 0 0 1107.8159433003418,420.2896112461975"/><line x1="858.8127891816779" y1="848.5589958869755" x2="855.7267215096351" y2="735.7253524215339"/><text x="848.5" y="743.0365251330002" text-anchor="middle" style="font-color:black;font-weight:normal" transform="rotate(308.6310697772516,848.5,471.5)">Propionibacteriales</text><path class="line" d=" M 856.1331876777314,750.1443565192784 A 278.7488887406839,278.7488887406839 0 0 0 1121.9673614798896,417.4949522785731"/><line x1="858.8291475171361" y1="848.5585481216003" x2="856.1331876777314" y2="750.1443565192784"/><path class="line" d=" M 857.7801020083763,761.9264946894925 A 290.5747220783523,290.5747220783523 0 0 0 1133.5691276959394,415.2038052299456"/><line x1="860.5466586099518" y1="848.507583499769" x2="857.7801020083763" y2="761.9264946894925"/><path class="line" d=" M 862.5046385205741,771.6179064977921 A 300.44448355845947,300.44448355845947 0 0 0 1143.2518842536226,413.29162921324354"/><line x1="866.0824484689954" y1="848.2899912495488" x2="862.5046385205741" y2="771.6179064977921"/><path class="line" d=" M 862.8943728175612,779.9698708223509 A 308.80553617765474,308.80553617765474 0 0 0 1151.4545178472329,411.67175173950386"/><text x="1191.5027680888275" y="471.5" text-anchor="start" style="font-color:black;font-weight:normal" transform="rotate(398.0785613942143,848.5,471.5)">27%&#160;&#160;&#160;Cutibacterium avidum 44067</text><path class="line" d=" M 862.111649414314,771.6359870141054 A 300.44448355845947,300.44448355845947 0 0 0 862.5046385205741,771.6179064977921"/><line x1="865.5890611745256" y1="848.3126908533911" x2="862.111649414314" y2="771.6359870141054"/><path class="line" d=" M 857.73657505763,761.9278822567084 A 290.5747220783523,290.5747220783523 0 0 0 857.7801020083763,761.9264946894925"/><line x1="860.4901555332077" y1="848.509384724425" x2="857.73657505763" y2="761.9278822567084"/><path class="line" d=" M 856.1276928035946,750.1445069917227 A 278.7488887406839,278.7488887406839 0 0 0 856.1331876777314,750.1443565192784"/><line x1="858.821711912518" y1="848.5587517392946" x2="856.1276928035946" y2="750.1445069917227"/><path class="line" d=" M 855.5787413438139,735.7293582989009 A 264.3241615253165,264.3241615253165 0 0 0 855.7267215096351,735.7253524215339"/><line x1="858.6016162104836" y1="848.5647124167629" x2="855.5787413438139" y2="735.7293582989009"/><path class="line" d=" M 854.872840976801,717.7606073526601 A 246.34305315112218,246.34305315112218 0 0 0 854.8767259875509,717.7605067839671"/><line x1="858.2580816089612" y1="848.5737591550396" x2="854.872840976801" y2="717.7606073526601"/><path class="line" d=" M 854.0059374951655,694.7476521562367 A 223.3155380643557,223.3155380643557 0 0 0 854.2727218769181,694.7409129687129"/><line x1="857.8000229235188" y1="848.5853346042802" x2="854.0059374951655" y2="694.7476521562367"/><path class="line" d=" M 851.7048400116914,664.2664235419144 A 192.79306275030035,192.79306275030035 0 0 0 853.0565130343617,664.2392104207365"/><line x1="854.7702756788283" y1="848.6478803372909" x2="851.7048400116914" y2="664.2664235419144"/><path class="line" d=" M 850.4914750585622,621.9493031741943 A 150.46248302653225,150.46248302653225 0 0 0 850.5252972514802,621.9488516724293"/><line x1="853.4925029614005" y1="848.6669589375247" x2="850.4914750585622" y2="621.9493031741943"/><path class="line" d=" M 849.3020731538546,559.4963446891737 A 88,88 0 0 0 849.6633527137307,559.4923099507193"/><line x1="851.937977200386" y1="848.6843320085945" x2="849.3020731538546" y2="559.4963446891737"/></svg>